<mxfile host="app.diagrams.net" modified="2022-06-14T18:15:09.236Z" agent="5.0 (Windows NT 10.0; Win64; x64) AppleWebKit/537.36 (KHTML, like Gecko) Chrome/102.0.0.0 Safari/537.36" etag="fj3_6ffWGmw2X7CEFjnV" version="20.0.1" type="github">
  <diagram id="Bsze32CDvP0iaV-iEPGE" name="Page-1">
    <mxGraphModel dx="1871" dy="1641" grid="1" gridSize="10" guides="1" tooltips="1" connect="1" arrows="1" fold="1" page="1" pageScale="1" pageWidth="850" pageHeight="1100" math="0" shadow="0">
      <root>
        <mxCell id="0" />
        <mxCell id="1" parent="0" />
        <mxCell id="twMHJTkQKGjOTuoVNY1T-58" value="" style="group;sketch=1;shadow=0;" vertex="1" connectable="0" parent="1">
          <mxGeometry x="40" y="10" width="120" height="30" as="geometry" />
        </mxCell>
        <mxCell id="twMHJTkQKGjOTuoVNY1T-54" value="" style="rounded=0;whiteSpace=wrap;html=1;" vertex="1" parent="twMHJTkQKGjOTuoVNY1T-58">
          <mxGeometry width="120" height="30" as="geometry" />
        </mxCell>
        <mxCell id="twMHJTkQKGjOTuoVNY1T-56" value="Task" style="text;html=1;align=center;verticalAlign=middle;whiteSpace=wrap;rounded=0;" vertex="1" parent="twMHJTkQKGjOTuoVNY1T-58">
          <mxGeometry x="30" width="60" height="30" as="geometry" />
        </mxCell>
        <mxCell id="twMHJTkQKGjOTuoVNY1T-66" value="Route Portal SIA UAD" style="swimlane;startSize=20;horizontal=1;childLayout=flowLayout;flowOrientation=north;resizable=0;interRankCellSpacing=50;containerType=tree;sketch=1;swimlaneLine=1;flipV=0;flipH=0;perimeterSpacing=0;disableMultiStroke=0;" vertex="1" parent="1">
          <mxGeometry x="40" y="-760" width="1378" height="730" as="geometry" />
        </mxCell>
        <mxCell id="twMHJTkQKGjOTuoVNY1T-67" value="Home &lt;br&gt;(logged-in user)" style="whiteSpace=wrap;html=1;sketch=1;flipV=0;flipH=1;" vertex="1" parent="twMHJTkQKGjOTuoVNY1T-66">
          <mxGeometry x="663.5349999999996" y="40" width="108.7" height="40" as="geometry" />
        </mxCell>
        <mxCell id="twMHJTkQKGjOTuoVNY1T-68" value="Navigasi Menu" style="whiteSpace=wrap;html=1;sketch=1;" vertex="1" parent="twMHJTkQKGjOTuoVNY1T-66">
          <mxGeometry x="363.5349999999999" y="130" width="60" height="40" as="geometry" />
        </mxCell>
        <mxCell id="twMHJTkQKGjOTuoVNY1T-69" value="" style="html=1;curved=1;noEdgeStyle=1;orthogonal=1;sketch=1;" edge="1" parent="twMHJTkQKGjOTuoVNY1T-66" source="twMHJTkQKGjOTuoVNY1T-67" target="twMHJTkQKGjOTuoVNY1T-68">
          <mxGeometry relative="1" as="geometry">
            <Array as="points">
              <mxPoint x="675.5849999999996" y="92" />
              <mxPoint x="393.5349999999999" y="118" />
            </Array>
          </mxGeometry>
        </mxCell>
        <mxCell id="twMHJTkQKGjOTuoVNY1T-266" value="" style="edgeStyle=orthogonalEdgeStyle;curved=1;sketch=1;orthogonalLoop=1;jettySize=auto;html=1;noEdgeStyle=1;orthogonal=1;" edge="1" source="twMHJTkQKGjOTuoVNY1T-67" target="twMHJTkQKGjOTuoVNY1T-267" parent="twMHJTkQKGjOTuoVNY1T-66">
          <mxGeometry relative="1" as="geometry">
            <Array as="points">
              <mxPoint x="689.6849999999996" y="94" />
              <mxPoint x="498.53499999999985" y="118" />
            </Array>
          </mxGeometry>
        </mxCell>
        <mxCell id="twMHJTkQKGjOTuoVNY1T-267" value="&lt;span style=&quot;color: rgb(51, 51, 51);&quot;&gt;Info Status Mahasiswa&lt;/span&gt;" style="whiteSpace=wrap;html=1;sketch=1;flipV=0;flipH=1;fillColor=#f5f5f5;fontColor=#333333;strokeColor=#666666;fillStyle=solid;" vertex="1" parent="twMHJTkQKGjOTuoVNY1T-66">
          <mxGeometry x="453.5349999999999" y="130" width="90" height="40" as="geometry" />
        </mxCell>
        <mxCell id="twMHJTkQKGjOTuoVNY1T-268" value="" style="edgeStyle=orthogonalEdgeStyle;curved=1;sketch=1;orthogonalLoop=1;jettySize=auto;html=1;noEdgeStyle=1;orthogonal=1;" edge="1" target="twMHJTkQKGjOTuoVNY1T-269" source="twMHJTkQKGjOTuoVNY1T-67" parent="twMHJTkQKGjOTuoVNY1T-66">
          <mxGeometry relative="1" as="geometry">
            <mxPoint x="7268.866666666667" y="12420" as="sourcePoint" />
            <Array as="points">
              <mxPoint x="703.7849999999996" y="96" />
              <mxPoint x="615.7099999999998" y="118" />
            </Array>
          </mxGeometry>
        </mxCell>
        <mxCell id="twMHJTkQKGjOTuoVNY1T-269" value="&lt;font color=&quot;#333333&quot;&gt;Info Pengumuman&lt;/font&gt;" style="whiteSpace=wrap;html=1;sketch=1;flipV=0;flipH=1;fillColor=#f5f5f5;fontColor=#333333;strokeColor=#666666;fillStyle=solid;" vertex="1" parent="twMHJTkQKGjOTuoVNY1T-66">
          <mxGeometry x="573.5349999999999" y="130" width="84.35" height="40" as="geometry" />
        </mxCell>
        <mxCell id="twMHJTkQKGjOTuoVNY1T-270" value="" style="edgeStyle=orthogonalEdgeStyle;curved=1;sketch=1;orthogonalLoop=1;jettySize=auto;html=1;noEdgeStyle=1;orthogonal=1;" edge="1" target="twMHJTkQKGjOTuoVNY1T-271" source="twMHJTkQKGjOTuoVNY1T-67" parent="twMHJTkQKGjOTuoVNY1T-66">
          <mxGeometry relative="1" as="geometry">
            <mxPoint x="7196.915" y="12180" as="sourcePoint" />
            <Array as="points">
              <mxPoint x="717.8849999999996" y="98" />
              <mxPoint x="717.8849999999998" y="118" />
            </Array>
          </mxGeometry>
        </mxCell>
        <mxCell id="twMHJTkQKGjOTuoVNY1T-302" style="edgeStyle=orthogonalEdgeStyle;curved=1;sketch=1;orthogonalLoop=1;jettySize=auto;html=1;noEdgeStyle=1;orthogonal=1;" edge="1" parent="twMHJTkQKGjOTuoVNY1T-66" source="twMHJTkQKGjOTuoVNY1T-308" target="twMHJTkQKGjOTuoVNY1T-298">
          <mxGeometry relative="1" as="geometry">
            <Array as="points">
              <mxPoint x="880" y="272" />
              <mxPoint x="573.6749999999998" y="298" />
            </Array>
          </mxGeometry>
        </mxCell>
        <mxCell id="twMHJTkQKGjOTuoVNY1T-271" value="&lt;font color=&quot;#333333&quot;&gt;Berita&lt;/font&gt;" style="whiteSpace=wrap;html=1;sketch=1;flipV=0;flipH=1;" vertex="1" parent="twMHJTkQKGjOTuoVNY1T-66">
          <mxGeometry x="687.8849999999998" y="130" width="60" height="40" as="geometry" />
        </mxCell>
        <mxCell id="twMHJTkQKGjOTuoVNY1T-274" value="" style="html=1;curved=1;noEdgeStyle=1;orthogonal=1;sketch=1;" edge="1" target="twMHJTkQKGjOTuoVNY1T-275" source="twMHJTkQKGjOTuoVNY1T-68" parent="twMHJTkQKGjOTuoVNY1T-66">
          <mxGeometry relative="1" as="geometry">
            <mxPoint x="6979.136363636364" y="11940" as="sourcePoint" />
            <Array as="points">
              <mxPoint x="371.6599999999999" y="182" />
              <mxPoint x="50" y="208" />
            </Array>
          </mxGeometry>
        </mxCell>
        <mxCell id="twMHJTkQKGjOTuoVNY1T-325" style="edgeStyle=orthogonalEdgeStyle;curved=1;sketch=1;orthogonalLoop=1;jettySize=auto;html=1;noEdgeStyle=1;orthogonal=1;" edge="1" parent="twMHJTkQKGjOTuoVNY1T-66" source="twMHJTkQKGjOTuoVNY1T-275" target="twMHJTkQKGjOTuoVNY1T-321">
          <mxGeometry relative="1" as="geometry">
            <Array as="points">
              <mxPoint x="50" y="272" />
              <mxPoint x="241.20249999999993" y="285" />
              <mxPoint x="241.20249999999993" y="375" />
              <mxPoint x="241.20249999999993" y="375" />
              <mxPoint x="241.20249999999993" y="465" />
              <mxPoint x="241.20249999999993" y="465" />
              <mxPoint x="241.20249999999993" y="555" />
              <mxPoint x="241.20249999999993" y="555" />
              <mxPoint x="241.20249999999993" y="645" />
              <mxPoint x="655.1543749999998" y="658" />
            </Array>
          </mxGeometry>
        </mxCell>
        <mxCell id="twMHJTkQKGjOTuoVNY1T-275" value="Home" style="whiteSpace=wrap;html=1;sketch=1;" vertex="1" parent="twMHJTkQKGjOTuoVNY1T-66">
          <mxGeometry x="20" y="220" width="60" height="40" as="geometry" />
        </mxCell>
        <mxCell id="twMHJTkQKGjOTuoVNY1T-276" value="" style="html=1;curved=1;noEdgeStyle=1;orthogonal=1;sketch=1;" edge="1" target="twMHJTkQKGjOTuoVNY1T-277" source="twMHJTkQKGjOTuoVNY1T-68" parent="twMHJTkQKGjOTuoVNY1T-66">
          <mxGeometry relative="1" as="geometry">
            <mxPoint x="6477.5" y="11950" as="sourcePoint" />
            <Array as="points">
              <mxPoint x="377.9099999999999" y="184" />
              <mxPoint x="145" y="208" />
            </Array>
          </mxGeometry>
        </mxCell>
        <mxCell id="twMHJTkQKGjOTuoVNY1T-277" value="Perkuliahan" style="whiteSpace=wrap;html=1;sketch=1;" vertex="1" parent="twMHJTkQKGjOTuoVNY1T-66">
          <mxGeometry x="110" y="220" width="70" height="40" as="geometry" />
        </mxCell>
        <mxCell id="twMHJTkQKGjOTuoVNY1T-278" value="" style="html=1;curved=1;noEdgeStyle=1;orthogonal=1;sketch=1;" edge="1" target="twMHJTkQKGjOTuoVNY1T-279" source="twMHJTkQKGjOTuoVNY1T-68" parent="twMHJTkQKGjOTuoVNY1T-66">
          <mxGeometry relative="1" as="geometry">
            <mxPoint x="6430" y="11830" as="sourcePoint" />
            <Array as="points">
              <mxPoint x="384.1599999999999" y="186" />
              <mxPoint x="260" y="208" />
            </Array>
          </mxGeometry>
        </mxCell>
        <mxCell id="twMHJTkQKGjOTuoVNY1T-328" style="edgeStyle=orthogonalEdgeStyle;curved=1;sketch=1;orthogonalLoop=1;jettySize=auto;html=1;noEdgeStyle=1;orthogonal=1;" edge="1" parent="twMHJTkQKGjOTuoVNY1T-66" source="twMHJTkQKGjOTuoVNY1T-279" target="twMHJTkQKGjOTuoVNY1T-327">
          <mxGeometry relative="1" as="geometry">
            <Array as="points">
              <mxPoint x="260" y="272" />
              <mxPoint x="389.0549999999999" y="296" />
            </Array>
          </mxGeometry>
        </mxCell>
        <mxCell id="twMHJTkQKGjOTuoVNY1T-279" value="Kemahasiswaan" style="whiteSpace=wrap;html=1;sketch=1;" vertex="1" parent="twMHJTkQKGjOTuoVNY1T-66">
          <mxGeometry x="210" y="220" width="100" height="40" as="geometry" />
        </mxCell>
        <mxCell id="twMHJTkQKGjOTuoVNY1T-280" value="" style="html=1;curved=1;noEdgeStyle=1;orthogonal=1;sketch=1;" edge="1" target="twMHJTkQKGjOTuoVNY1T-281" source="twMHJTkQKGjOTuoVNY1T-68" parent="twMHJTkQKGjOTuoVNY1T-66">
          <mxGeometry relative="1" as="geometry">
            <mxPoint x="6354.166666666666" y="11670" as="sourcePoint" />
            <Array as="points">
              <mxPoint x="390.4099999999999" y="188" />
              <mxPoint x="375" y="208" />
            </Array>
          </mxGeometry>
        </mxCell>
        <mxCell id="twMHJTkQKGjOTuoVNY1T-329" style="edgeStyle=orthogonalEdgeStyle;curved=1;sketch=1;orthogonalLoop=1;jettySize=auto;html=1;noEdgeStyle=1;orthogonal=1;" edge="1" parent="twMHJTkQKGjOTuoVNY1T-66" source="twMHJTkQKGjOTuoVNY1T-281" target="twMHJTkQKGjOTuoVNY1T-327">
          <mxGeometry relative="1" as="geometry">
            <Array as="points">
              <mxPoint x="375" y="272" />
              <mxPoint x="409.0549999999999" y="294" />
            </Array>
          </mxGeometry>
        </mxCell>
        <mxCell id="twMHJTkQKGjOTuoVNY1T-281" value="Kelulusan" style="whiteSpace=wrap;html=1;sketch=1;" vertex="1" parent="twMHJTkQKGjOTuoVNY1T-66">
          <mxGeometry x="340" y="220" width="70" height="40" as="geometry" />
        </mxCell>
        <mxCell id="twMHJTkQKGjOTuoVNY1T-282" value="" style="html=1;curved=1;noEdgeStyle=1;orthogonal=1;sketch=1;" edge="1" target="twMHJTkQKGjOTuoVNY1T-283" source="twMHJTkQKGjOTuoVNY1T-68" parent="twMHJTkQKGjOTuoVNY1T-66">
          <mxGeometry relative="1" as="geometry">
            <mxPoint x="6276.25" y="11510" as="sourcePoint" />
            <Array as="points">
              <mxPoint x="396.6599999999999" y="188" />
              <mxPoint x="480" y="208" />
            </Array>
          </mxGeometry>
        </mxCell>
        <mxCell id="twMHJTkQKGjOTuoVNY1T-330" style="edgeStyle=orthogonalEdgeStyle;curved=1;sketch=1;orthogonalLoop=1;jettySize=auto;html=1;noEdgeStyle=1;orthogonal=1;" edge="1" parent="twMHJTkQKGjOTuoVNY1T-66" source="twMHJTkQKGjOTuoVNY1T-283" target="twMHJTkQKGjOTuoVNY1T-327">
          <mxGeometry relative="1" as="geometry">
            <Array as="points">
              <mxPoint x="480" y="272" />
              <mxPoint x="429.0549999999999" y="294" />
            </Array>
          </mxGeometry>
        </mxCell>
        <mxCell id="twMHJTkQKGjOTuoVNY1T-283" value="LPS UAD" style="whiteSpace=wrap;html=1;sketch=1;" vertex="1" parent="twMHJTkQKGjOTuoVNY1T-66">
          <mxGeometry x="440" y="220" width="80" height="40" as="geometry" />
        </mxCell>
        <mxCell id="twMHJTkQKGjOTuoVNY1T-284" value="" style="html=1;curved=1;noEdgeStyle=1;orthogonal=1;sketch=1;" edge="1" target="twMHJTkQKGjOTuoVNY1T-285" source="twMHJTkQKGjOTuoVNY1T-68" parent="twMHJTkQKGjOTuoVNY1T-66">
          <mxGeometry relative="1" as="geometry">
            <mxPoint x="6197.5" y="11350" as="sourcePoint" />
            <Array as="points">
              <mxPoint x="402.9099999999999" y="186" />
              <mxPoint x="580" y="208" />
            </Array>
          </mxGeometry>
        </mxCell>
        <mxCell id="twMHJTkQKGjOTuoVNY1T-331" style="edgeStyle=orthogonalEdgeStyle;curved=1;sketch=1;orthogonalLoop=1;jettySize=auto;html=1;noEdgeStyle=1;orthogonal=1;" edge="1" parent="twMHJTkQKGjOTuoVNY1T-66" source="twMHJTkQKGjOTuoVNY1T-285" target="twMHJTkQKGjOTuoVNY1T-327">
          <mxGeometry relative="1" as="geometry">
            <Array as="points">
              <mxPoint x="580" y="272" />
              <mxPoint x="449.0549999999999" y="296" />
            </Array>
          </mxGeometry>
        </mxCell>
        <mxCell id="twMHJTkQKGjOTuoVNY1T-285" value="WIFI" style="whiteSpace=wrap;html=1;sketch=1;" vertex="1" parent="twMHJTkQKGjOTuoVNY1T-66">
          <mxGeometry x="550" y="220" width="60" height="40" as="geometry" />
        </mxCell>
        <mxCell id="twMHJTkQKGjOTuoVNY1T-286" value="" style="html=1;curved=1;noEdgeStyle=1;orthogonal=1;sketch=1;" edge="1" target="twMHJTkQKGjOTuoVNY1T-287" source="twMHJTkQKGjOTuoVNY1T-68" parent="twMHJTkQKGjOTuoVNY1T-66">
          <mxGeometry relative="1" as="geometry">
            <mxPoint x="6138.333333333334" y="11230" as="sourcePoint" />
            <Array as="points">
              <mxPoint x="409.1599999999999" y="184" />
              <mxPoint x="680" y="208" />
            </Array>
          </mxGeometry>
        </mxCell>
        <mxCell id="twMHJTkQKGjOTuoVNY1T-334" style="edgeStyle=orthogonalEdgeStyle;curved=1;sketch=1;orthogonalLoop=1;jettySize=auto;html=1;noEdgeStyle=1;orthogonal=1;exitX=0;exitY=0.5;exitDx=0;exitDy=0;" edge="1" parent="twMHJTkQKGjOTuoVNY1T-66" source="twMHJTkQKGjOTuoVNY1T-287" target="twMHJTkQKGjOTuoVNY1T-327">
          <mxGeometry relative="1" as="geometry">
            <mxPoint x="3770" y="6500" as="sourcePoint" />
            <Array as="points">
              <mxPoint x="680" y="272" />
              <mxPoint x="469.0549999999999" y="298" />
            </Array>
          </mxGeometry>
        </mxCell>
        <mxCell id="twMHJTkQKGjOTuoVNY1T-287" value="Forum" style="whiteSpace=wrap;html=1;sketch=1;" vertex="1" parent="twMHJTkQKGjOTuoVNY1T-66">
          <mxGeometry x="640" y="220" width="80" height="40" as="geometry" />
        </mxCell>
        <mxCell id="twMHJTkQKGjOTuoVNY1T-288" value="" style="html=1;curved=1;noEdgeStyle=1;orthogonal=1;sketch=1;" edge="1" target="twMHJTkQKGjOTuoVNY1T-289" source="twMHJTkQKGjOTuoVNY1T-68" parent="twMHJTkQKGjOTuoVNY1T-66">
          <mxGeometry relative="1" as="geometry">
            <mxPoint x="6078.928571428572" y="11110" as="sourcePoint" />
            <Array as="points">
              <mxPoint x="415.4099999999999" y="182" />
              <mxPoint x="785" y="208" />
            </Array>
          </mxGeometry>
        </mxCell>
        <mxCell id="twMHJTkQKGjOTuoVNY1T-333" style="edgeStyle=orthogonalEdgeStyle;curved=1;sketch=1;orthogonalLoop=1;jettySize=auto;html=1;noEdgeStyle=1;orthogonal=1;exitX=0.5;exitY=1;exitDx=0;exitDy=0;startArrow=none;" edge="1" parent="twMHJTkQKGjOTuoVNY1T-66" source="twMHJTkQKGjOTuoVNY1T-327" target="twMHJTkQKGjOTuoVNY1T-321">
          <mxGeometry relative="1" as="geometry">
            <Array as="points">
              <mxPoint x="419.0549999999999" y="362" />
              <mxPoint x="494.90499999999986" y="375" />
              <mxPoint x="494.90499999999986" y="465" />
              <mxPoint x="494.90499999999986" y="465" />
              <mxPoint x="494.90499999999986" y="555" />
              <mxPoint x="494.90499999999986" y="555" />
              <mxPoint x="494.90499999999986" y="645" />
              <mxPoint x="669.6181249999998" y="656" />
            </Array>
          </mxGeometry>
        </mxCell>
        <mxCell id="twMHJTkQKGjOTuoVNY1T-289" value="FAQ" style="whiteSpace=wrap;html=1;sketch=1;" vertex="1" parent="twMHJTkQKGjOTuoVNY1T-66">
          <mxGeometry x="750" y="220" width="70" height="40" as="geometry" />
        </mxCell>
        <mxCell id="twMHJTkQKGjOTuoVNY1T-292" value="" style="edgeStyle=orthogonalEdgeStyle;curved=1;sketch=1;orthogonalLoop=1;jettySize=auto;html=1;noEdgeStyle=1;orthogonal=1;" edge="1" target="twMHJTkQKGjOTuoVNY1T-293" source="twMHJTkQKGjOTuoVNY1T-67" parent="twMHJTkQKGjOTuoVNY1T-66">
          <mxGeometry relative="1" as="geometry">
            <mxPoint x="6128.225" y="10420" as="sourcePoint" />
            <Array as="points">
              <mxPoint x="731.9849999999997" y="96" />
              <mxPoint x="815.0049999999998" y="118" />
            </Array>
          </mxGeometry>
        </mxCell>
        <mxCell id="twMHJTkQKGjOTuoVNY1T-293" value="&lt;font color=&quot;#333333&quot;&gt;Info Jadwal Akademik&lt;/font&gt;" style="whiteSpace=wrap;html=1;sketch=1;flipV=0;flipH=1;fillColor=#f5f5f5;fontColor=#333333;strokeColor=#666666;fillStyle=solid;" vertex="1" parent="twMHJTkQKGjOTuoVNY1T-66">
          <mxGeometry x="777.8849999999998" y="130" width="74.24" height="40" as="geometry" />
        </mxCell>
        <mxCell id="twMHJTkQKGjOTuoVNY1T-296" value="" style="edgeStyle=orthogonalEdgeStyle;curved=1;sketch=1;orthogonalLoop=1;jettySize=auto;html=1;noEdgeStyle=1;orthogonal=1;" edge="1" target="twMHJTkQKGjOTuoVNY1T-297" source="twMHJTkQKGjOTuoVNY1T-67" parent="twMHJTkQKGjOTuoVNY1T-66">
          <mxGeometry relative="1" as="geometry">
            <mxPoint x="6062.2125" y="10180" as="sourcePoint" />
            <Array as="points">
              <mxPoint x="760.1849999999997" y="92" />
              <mxPoint x="1116.4049999999997" y="118" />
            </Array>
          </mxGeometry>
        </mxCell>
        <mxCell id="twMHJTkQKGjOTuoVNY1T-297" value="&lt;font color=&quot;#333333&quot;&gt;Akun&lt;/font&gt;" style="whiteSpace=wrap;html=1;sketch=1;flipV=0;flipH=1;" vertex="1" parent="twMHJTkQKGjOTuoVNY1T-66">
          <mxGeometry x="1094.9899999999998" y="130" width="42.83" height="40" as="geometry" />
        </mxCell>
        <mxCell id="twMHJTkQKGjOTuoVNY1T-295" value="&lt;font color=&quot;#333333&quot;&gt;Notifikasi&lt;/font&gt;" style="whiteSpace=wrap;html=1;sketch=1;flipV=0;flipH=1;" vertex="1" parent="twMHJTkQKGjOTuoVNY1T-66">
          <mxGeometry x="882.1249999999998" y="130" width="60" height="40" as="geometry" />
        </mxCell>
        <mxCell id="twMHJTkQKGjOTuoVNY1T-294" value="" style="edgeStyle=orthogonalEdgeStyle;curved=1;sketch=1;orthogonalLoop=1;jettySize=auto;html=1;noEdgeStyle=1;orthogonal=1;exitX=0.001;exitY=0.882;exitDx=0;exitDy=0;exitPerimeter=0;" edge="1" target="twMHJTkQKGjOTuoVNY1T-295" source="twMHJTkQKGjOTuoVNY1T-67" parent="twMHJTkQKGjOTuoVNY1T-66">
          <mxGeometry relative="1" as="geometry">
            <mxPoint x="6074.48" y="10220" as="sourcePoint" />
            <Array as="points">
              <mxPoint x="746.0849999999997" y="94" />
              <mxPoint x="912.1249999999998" y="118" />
            </Array>
          </mxGeometry>
        </mxCell>
        <mxCell id="twMHJTkQKGjOTuoVNY1T-303" style="edgeStyle=orthogonalEdgeStyle;curved=1;sketch=1;orthogonalLoop=1;jettySize=auto;html=1;noEdgeStyle=1;orthogonal=1;" edge="1" parent="twMHJTkQKGjOTuoVNY1T-66" source="twMHJTkQKGjOTuoVNY1T-298" target="twMHJTkQKGjOTuoVNY1T-299">
          <mxGeometry relative="1" as="geometry">
            <Array as="points">
              <mxPoint x="573.6749999999998" y="362" />
              <mxPoint x="619.8024999999998" y="388" />
            </Array>
          </mxGeometry>
        </mxCell>
        <mxCell id="twMHJTkQKGjOTuoVNY1T-298" value="Informasi Diskusi" style="whiteSpace=wrap;html=1;sketch=1;fillColor=#f5f5f5;strokeColor=#666666;fillStyle=solid;fontColor=#333333;" vertex="1" parent="twMHJTkQKGjOTuoVNY1T-66">
          <mxGeometry x="544.0549999999998" y="310" width="59.24" height="40" as="geometry" />
        </mxCell>
        <mxCell id="twMHJTkQKGjOTuoVNY1T-304" style="edgeStyle=orthogonalEdgeStyle;curved=1;sketch=1;orthogonalLoop=1;jettySize=auto;html=1;noEdgeStyle=1;orthogonal=1;" edge="1" parent="twMHJTkQKGjOTuoVNY1T-66" source="twMHJTkQKGjOTuoVNY1T-299" target="twMHJTkQKGjOTuoVNY1T-300">
          <mxGeometry relative="1" as="geometry">
            <Array as="points">
              <mxPoint x="619.8024999999998" y="452" />
              <mxPoint x="665.9299999999998" y="478" />
            </Array>
          </mxGeometry>
        </mxCell>
        <mxCell id="twMHJTkQKGjOTuoVNY1T-299" value="Klik Tag" style="whiteSpace=wrap;html=1;sketch=1;fillStyle=solid;" vertex="1" parent="twMHJTkQKGjOTuoVNY1T-66">
          <mxGeometry x="592.3024999999998" y="400" width="55" height="40" as="geometry" />
        </mxCell>
        <mxCell id="twMHJTkQKGjOTuoVNY1T-306" style="edgeStyle=orthogonalEdgeStyle;curved=1;sketch=1;orthogonalLoop=1;jettySize=auto;html=1;entryX=0.5;entryY=0;entryDx=0;entryDy=0;noEdgeStyle=1;orthogonal=1;" edge="1" parent="twMHJTkQKGjOTuoVNY1T-66" source="twMHJTkQKGjOTuoVNY1T-300" target="twMHJTkQKGjOTuoVNY1T-301">
          <mxGeometry relative="1" as="geometry">
            <Array as="points">
              <mxPoint x="665.9299999999998" y="542" />
              <mxPoint x="674.2449999999999" y="568" />
            </Array>
          </mxGeometry>
        </mxCell>
        <mxCell id="twMHJTkQKGjOTuoVNY1T-300" value="Mulai Diskusi" style="whiteSpace=wrap;html=1;sketch=1;fillStyle=solid;" vertex="1" parent="twMHJTkQKGjOTuoVNY1T-66">
          <mxGeometry x="630.7549999999999" y="490" width="70.35" height="40" as="geometry" />
        </mxCell>
        <mxCell id="twMHJTkQKGjOTuoVNY1T-324" style="edgeStyle=orthogonalEdgeStyle;curved=1;sketch=1;orthogonalLoop=1;jettySize=auto;html=1;entryX=0.348;entryY=0.049;entryDx=0;entryDy=0;noEdgeStyle=1;orthogonal=1;entryPerimeter=0;" edge="1" parent="twMHJTkQKGjOTuoVNY1T-66" source="twMHJTkQKGjOTuoVNY1T-301" target="twMHJTkQKGjOTuoVNY1T-321">
          <mxGeometry relative="1" as="geometry">
            <Array as="points">
              <mxPoint x="674.2449999999999" y="632" />
              <mxPoint x="698.5456249999999" y="652" />
            </Array>
          </mxGeometry>
        </mxCell>
        <mxCell id="twMHJTkQKGjOTuoVNY1T-301" value="Tulis Komentar" style="whiteSpace=wrap;html=1;sketch=1;fillStyle=solid;" vertex="1" parent="twMHJTkQKGjOTuoVNY1T-66">
          <mxGeometry x="641.1799999999998" y="580" width="66.13" height="40" as="geometry" />
        </mxCell>
        <mxCell id="twMHJTkQKGjOTuoVNY1T-307" value="" style="edgeStyle=orthogonalEdgeStyle;curved=1;sketch=1;orthogonalLoop=1;jettySize=auto;html=1;noEdgeStyle=1;orthogonal=1;" edge="1" target="twMHJTkQKGjOTuoVNY1T-308" source="twMHJTkQKGjOTuoVNY1T-271" parent="twMHJTkQKGjOTuoVNY1T-66">
          <mxGeometry relative="1" as="geometry">
            <mxPoint x="5702.555" y="9420" as="sourcePoint" />
            <Array as="points">
              <mxPoint x="705.3849999999998" y="182" />
              <mxPoint x="880" y="208" />
            </Array>
          </mxGeometry>
        </mxCell>
        <mxCell id="twMHJTkQKGjOTuoVNY1T-308" value="&lt;font color=&quot;#333333&quot;&gt;Hashtag&lt;/font&gt;" style="whiteSpace=wrap;html=1;sketch=1;flipV=0;flipH=1;" vertex="1" parent="twMHJTkQKGjOTuoVNY1T-66">
          <mxGeometry x="850" y="220" width="60" height="40" as="geometry" />
        </mxCell>
        <mxCell id="twMHJTkQKGjOTuoVNY1T-316" value="" style="edgeStyle=orthogonalEdgeStyle;curved=1;sketch=1;orthogonalLoop=1;jettySize=auto;html=1;noEdgeStyle=1;orthogonal=1;" edge="1" target="twMHJTkQKGjOTuoVNY1T-317" source="twMHJTkQKGjOTuoVNY1T-271" parent="twMHJTkQKGjOTuoVNY1T-66">
          <mxGeometry relative="1" as="geometry">
            <mxPoint x="5593.640000000001" y="9220" as="sourcePoint" />
            <Array as="points">
              <mxPoint x="730.3849999999998" y="182" />
              <mxPoint x="970" y="208" />
            </Array>
          </mxGeometry>
        </mxCell>
        <mxCell id="twMHJTkQKGjOTuoVNY1T-317" value="&lt;font color=&quot;#333333&quot;&gt;Forum Berita&lt;/font&gt;" style="whiteSpace=wrap;html=1;sketch=1;flipV=0;flipH=1;fillColor=#f5f5f5;fontColor=#333333;strokeColor=#666666;fillStyle=solid;" vertex="1" parent="twMHJTkQKGjOTuoVNY1T-66">
          <mxGeometry x="940" y="220" width="60" height="40" as="geometry" />
        </mxCell>
        <mxCell id="twMHJTkQKGjOTuoVNY1T-318" value="" style="edgeStyle=orthogonalEdgeStyle;curved=1;sketch=1;orthogonalLoop=1;jettySize=auto;html=1;noEdgeStyle=1;orthogonal=1;" edge="1" target="twMHJTkQKGjOTuoVNY1T-319" source="twMHJTkQKGjOTuoVNY1T-317" parent="twMHJTkQKGjOTuoVNY1T-66">
          <mxGeometry relative="1" as="geometry">
            <mxPoint x="5611.139999999999" y="9230" as="sourcePoint" />
            <Array as="points">
              <mxPoint x="970" y="272" />
              <mxPoint x="683.2949999999998" y="298" />
            </Array>
          </mxGeometry>
        </mxCell>
        <mxCell id="twMHJTkQKGjOTuoVNY1T-319" value="Simpan Tautan Diskusi" style="whiteSpace=wrap;html=1;sketch=1;flipV=0;flipH=1;" vertex="1" parent="twMHJTkQKGjOTuoVNY1T-66">
          <mxGeometry x="633.2949999999998" y="310" width="100" height="40" as="geometry" />
        </mxCell>
        <mxCell id="twMHJTkQKGjOTuoVNY1T-320" value="" style="edgeStyle=orthogonalEdgeStyle;curved=1;sketch=1;orthogonalLoop=1;jettySize=auto;html=1;noEdgeStyle=1;orthogonal=1;" edge="1" target="twMHJTkQKGjOTuoVNY1T-321" source="twMHJTkQKGjOTuoVNY1T-319" parent="twMHJTkQKGjOTuoVNY1T-66">
          <mxGeometry relative="1" as="geometry">
            <mxPoint x="5900" y="9160" as="sourcePoint" />
            <Array as="points">
              <mxPoint x="683.2949999999998" y="362" />
              <mxPoint x="705.3299999999999" y="375" />
              <mxPoint x="705.3299999999999" y="465" />
              <mxPoint x="737.31" y="465" />
              <mxPoint x="737.31" y="555" />
              <mxPoint x="737.31" y="555" />
              <mxPoint x="737.31" y="645" />
              <mxPoint x="713.0093749999999" y="652" />
            </Array>
          </mxGeometry>
        </mxCell>
        <mxCell id="twMHJTkQKGjOTuoVNY1T-321" value="End" style="whiteSpace=wrap;html=1;sketch=1;flipV=0;flipH=1;" vertex="1" parent="twMHJTkQKGjOTuoVNY1T-66">
          <mxGeometry x="642.9224999999999" y="670" width="125.71" height="40" as="geometry" />
        </mxCell>
        <mxCell id="twMHJTkQKGjOTuoVNY1T-326" value="" style="html=1;curved=1;noEdgeStyle=1;orthogonal=1;sketch=1;" edge="1" target="twMHJTkQKGjOTuoVNY1T-327" source="twMHJTkQKGjOTuoVNY1T-277" parent="twMHJTkQKGjOTuoVNY1T-66">
          <mxGeometry relative="1" as="geometry">
            <mxPoint x="4668.665" y="8030" as="sourcePoint" />
            <Array as="points">
              <mxPoint x="145" y="272" />
              <mxPoint x="369.0549999999999" y="298" />
            </Array>
          </mxGeometry>
        </mxCell>
        <mxCell id="twMHJTkQKGjOTuoVNY1T-335" value="" style="edgeStyle=orthogonalEdgeStyle;curved=1;sketch=1;orthogonalLoop=1;jettySize=auto;html=1;noEdgeStyle=1;orthogonal=1;exitX=0.5;exitY=1;exitDx=0;exitDy=0;" edge="1" target="twMHJTkQKGjOTuoVNY1T-336" source="twMHJTkQKGjOTuoVNY1T-295" parent="twMHJTkQKGjOTuoVNY1T-66">
          <mxGeometry relative="1" as="geometry">
            <mxPoint x="4272.881300000001" y="6255.28" as="sourcePoint" />
            <Array as="points">
              <mxPoint x="912.1249999999998" y="182" />
              <mxPoint x="1070" y="208" />
            </Array>
          </mxGeometry>
        </mxCell>
        <mxCell id="twMHJTkQKGjOTuoVNY1T-337" style="edgeStyle=orthogonalEdgeStyle;curved=1;sketch=1;orthogonalLoop=1;jettySize=auto;html=1;entryX=0.139;entryY=0.04;entryDx=0;entryDy=0;noEdgeStyle=1;orthogonal=1;entryPerimeter=0;" edge="1" parent="twMHJTkQKGjOTuoVNY1T-66" source="twMHJTkQKGjOTuoVNY1T-336" target="twMHJTkQKGjOTuoVNY1T-321">
          <mxGeometry relative="1" as="geometry">
            <Array as="points">
              <mxPoint x="1070" y="272" />
              <mxPoint x="763.2949999999998" y="285" />
              <mxPoint x="763.2949999999998" y="375" />
              <mxPoint x="735.3299999999999" y="375" />
              <mxPoint x="735.3299999999999" y="465" />
              <mxPoint x="767.31" y="465" />
              <mxPoint x="767.31" y="555" />
              <mxPoint x="767.31" y="555" />
              <mxPoint x="767.31" y="645" />
              <mxPoint x="727.4731249999999" y="654" />
            </Array>
          </mxGeometry>
        </mxCell>
        <mxCell id="twMHJTkQKGjOTuoVNY1T-336" value="&lt;font color=&quot;#333333&quot;&gt;Lihat Semua Notifikasi&lt;/font&gt;" style="whiteSpace=wrap;html=1;sketch=1;flipV=0;flipH=1;" vertex="1" parent="twMHJTkQKGjOTuoVNY1T-66">
          <mxGeometry x="1030" y="220" width="80" height="40" as="geometry" />
        </mxCell>
        <mxCell id="twMHJTkQKGjOTuoVNY1T-340" value="" style="edgeStyle=orthogonalEdgeStyle;curved=1;sketch=1;orthogonalLoop=1;jettySize=auto;html=1;noEdgeStyle=1;orthogonal=1;" edge="1" target="twMHJTkQKGjOTuoVNY1T-341" source="twMHJTkQKGjOTuoVNY1T-297" parent="twMHJTkQKGjOTuoVNY1T-66">
          <mxGeometry relative="1" as="geometry">
            <mxPoint x="4155.9400000000005" y="5940" as="sourcePoint" />
            <Array as="points">
              <mxPoint x="1105.4616666666664" y="182" />
              <mxPoint x="1166.415" y="208" />
            </Array>
          </mxGeometry>
        </mxCell>
        <mxCell id="twMHJTkQKGjOTuoVNY1T-341" value="&lt;font color=&quot;#333333&quot;&gt;Profile&lt;/font&gt;" style="whiteSpace=wrap;html=1;sketch=1;flipV=0;flipH=1;" vertex="1" parent="twMHJTkQKGjOTuoVNY1T-66">
          <mxGeometry x="1140" y="220" width="52.83" height="40" as="geometry" />
        </mxCell>
        <mxCell id="twMHJTkQKGjOTuoVNY1T-342" value="" style="edgeStyle=orthogonalEdgeStyle;curved=1;sketch=1;orthogonalLoop=1;jettySize=auto;html=1;noEdgeStyle=1;orthogonal=1;" edge="1" target="twMHJTkQKGjOTuoVNY1T-343" source="twMHJTkQKGjOTuoVNY1T-297" parent="twMHJTkQKGjOTuoVNY1T-66">
          <mxGeometry relative="1" as="geometry">
            <mxPoint x="4370.71" y="5910" as="sourcePoint" />
            <Array as="points">
              <mxPoint x="1116.4049999999997" y="184" />
              <mxPoint x="1249.245" y="208" />
            </Array>
          </mxGeometry>
        </mxCell>
        <mxCell id="twMHJTkQKGjOTuoVNY1T-343" value="&lt;font color=&quot;#333333&quot;&gt;Inbox&lt;/font&gt;" style="whiteSpace=wrap;html=1;sketch=1;flipV=0;flipH=1;" vertex="1" parent="twMHJTkQKGjOTuoVNY1T-66">
          <mxGeometry x="1222.83" y="220" width="52.83" height="40" as="geometry" />
        </mxCell>
        <mxCell id="twMHJTkQKGjOTuoVNY1T-344" value="" style="edgeStyle=orthogonalEdgeStyle;curved=1;sketch=1;orthogonalLoop=1;jettySize=auto;html=1;noEdgeStyle=1;orthogonal=1;" edge="1" target="twMHJTkQKGjOTuoVNY1T-345" source="twMHJTkQKGjOTuoVNY1T-297" parent="twMHJTkQKGjOTuoVNY1T-66">
          <mxGeometry relative="1" as="geometry">
            <mxPoint x="4458.9175" y="5830" as="sourcePoint" />
            <Array as="points">
              <mxPoint x="1127.3483333333331" y="182" />
              <mxPoint x="1332.0749999999998" y="208" />
            </Array>
          </mxGeometry>
        </mxCell>
        <mxCell id="twMHJTkQKGjOTuoVNY1T-346" style="edgeStyle=orthogonalEdgeStyle;curved=1;sketch=1;orthogonalLoop=1;jettySize=auto;html=1;entryX=1;entryY=0.75;entryDx=0;entryDy=0;noEdgeStyle=1;orthogonal=1;" edge="1" parent="twMHJTkQKGjOTuoVNY1T-66" source="twMHJTkQKGjOTuoVNY1T-345" target="twMHJTkQKGjOTuoVNY1T-321">
          <mxGeometry relative="1" as="geometry">
            <Array as="points">
              <mxPoint x="1332.0749999999998" y="272" />
              <mxPoint x="1139.08" y="285" />
              <mxPoint x="1139.08" y="375" />
              <mxPoint x="1139.08" y="375" />
              <mxPoint x="1139.08" y="465" />
              <mxPoint x="1139.08" y="465" />
              <mxPoint x="1139.08" y="555" />
              <mxPoint x="1139.08" y="555" />
              <mxPoint x="1139.08" y="645" />
              <mxPoint x="756.4006249999999" y="658" />
            </Array>
          </mxGeometry>
        </mxCell>
        <mxCell id="twMHJTkQKGjOTuoVNY1T-345" value="&lt;font color=&quot;#333333&quot;&gt;Logout&lt;/font&gt;" style="whiteSpace=wrap;html=1;sketch=1;flipV=0;flipH=1;" vertex="1" parent="twMHJTkQKGjOTuoVNY1T-66">
          <mxGeometry x="1305.6599999999999" y="220" width="52.83" height="40" as="geometry" />
        </mxCell>
        <mxCell id="twMHJTkQKGjOTuoVNY1T-347" value="" style="edgeStyle=orthogonalEdgeStyle;curved=1;sketch=1;orthogonalLoop=1;jettySize=auto;html=1;noEdgeStyle=1;orthogonal=1;" edge="1" target="twMHJTkQKGjOTuoVNY1T-348" source="twMHJTkQKGjOTuoVNY1T-341" parent="twMHJTkQKGjOTuoVNY1T-66">
          <mxGeometry relative="1" as="geometry">
            <mxPoint x="4465.461666666666" y="5710" as="sourcePoint" />
            <Array as="points">
              <mxPoint x="1152.1383333333333" y="272" />
              <mxPoint x="819.7099999999998" y="298" />
            </Array>
          </mxGeometry>
        </mxCell>
        <mxCell id="twMHJTkQKGjOTuoVNY1T-348" value="&lt;font color=&quot;#333333&quot;&gt;Biodata&lt;/font&gt;" style="whiteSpace=wrap;html=1;sketch=1;flipV=0;flipH=1;" vertex="1" parent="twMHJTkQKGjOTuoVNY1T-66">
          <mxGeometry x="793.2949999999998" y="310" width="52.83" height="40" as="geometry" />
        </mxCell>
        <mxCell id="twMHJTkQKGjOTuoVNY1T-349" value="" style="edgeStyle=orthogonalEdgeStyle;curved=1;sketch=1;orthogonalLoop=1;jettySize=auto;html=1;noEdgeStyle=1;orthogonal=1;" edge="1" target="twMHJTkQKGjOTuoVNY1T-350" source="twMHJTkQKGjOTuoVNY1T-341" parent="twMHJTkQKGjOTuoVNY1T-66">
          <mxGeometry relative="1" as="geometry">
            <mxPoint x="4486.415" y="5720" as="sourcePoint" />
            <Array as="points">
              <mxPoint x="1166.415" y="274" />
              <mxPoint x="902.5399999999997" y="298" />
            </Array>
          </mxGeometry>
        </mxCell>
        <mxCell id="twMHJTkQKGjOTuoVNY1T-355" style="edgeStyle=orthogonalEdgeStyle;curved=1;sketch=1;orthogonalLoop=1;jettySize=auto;html=1;noEdgeStyle=1;orthogonal=1;entryX=0.385;entryY=0.029;entryDx=0;entryDy=0;entryPerimeter=0;" edge="1" parent="twMHJTkQKGjOTuoVNY1T-66" source="twMHJTkQKGjOTuoVNY1T-350" target="twMHJTkQKGjOTuoVNY1T-354">
          <mxGeometry relative="1" as="geometry">
            <mxPoint x="3300" y="5440" as="targetPoint" />
            <Array as="points">
              <mxPoint x="902.5399999999997" y="362" />
              <mxPoint x="791.7449999999999" y="386" />
            </Array>
          </mxGeometry>
        </mxCell>
        <mxCell id="twMHJTkQKGjOTuoVNY1T-350" value="&lt;font color=&quot;#333333&quot;&gt;Profile Akun&lt;/font&gt;" style="whiteSpace=wrap;html=1;sketch=1;flipV=0;flipH=1;" vertex="1" parent="twMHJTkQKGjOTuoVNY1T-66">
          <mxGeometry x="876.1249999999998" y="310" width="52.83" height="40" as="geometry" />
        </mxCell>
        <mxCell id="twMHJTkQKGjOTuoVNY1T-351" value="" style="edgeStyle=orthogonalEdgeStyle;curved=1;sketch=1;orthogonalLoop=1;jettySize=auto;html=1;noEdgeStyle=1;orthogonal=1;" edge="1" target="twMHJTkQKGjOTuoVNY1T-352" source="twMHJTkQKGjOTuoVNY1T-341" parent="twMHJTkQKGjOTuoVNY1T-66">
          <mxGeometry relative="1" as="geometry">
            <mxPoint x="4457.1224999999995" y="5640" as="sourcePoint" />
            <Array as="points">
              <mxPoint x="1180.6916666666666" y="272" />
              <mxPoint x="991.6949999999997" y="298" />
            </Array>
          </mxGeometry>
        </mxCell>
        <mxCell id="twMHJTkQKGjOTuoVNY1T-356" style="edgeStyle=orthogonalEdgeStyle;curved=1;sketch=1;orthogonalLoop=1;jettySize=auto;html=1;entryX=0.132;entryY=-0.012;entryDx=0;entryDy=0;noEdgeStyle=1;orthogonal=1;entryPerimeter=0;" edge="1" parent="twMHJTkQKGjOTuoVNY1T-66" source="twMHJTkQKGjOTuoVNY1T-352" target="twMHJTkQKGjOTuoVNY1T-354">
          <mxGeometry relative="1" as="geometry">
            <Array as="points">
              <mxPoint x="991.6949999999997" y="362" />
              <mxPoint x="806.0216666666665" y="388" />
            </Array>
          </mxGeometry>
        </mxCell>
        <mxCell id="twMHJTkQKGjOTuoVNY1T-352" value="&lt;font color=&quot;#333333&quot;&gt;Ubah Password&lt;/font&gt;" style="whiteSpace=wrap;html=1;sketch=1;flipV=0;flipH=1;" vertex="1" parent="twMHJTkQKGjOTuoVNY1T-66">
          <mxGeometry x="958.9549999999997" y="310" width="65.48" height="40" as="geometry" />
        </mxCell>
        <mxCell id="twMHJTkQKGjOTuoVNY1T-353" value="" style="edgeStyle=orthogonalEdgeStyle;curved=1;sketch=1;orthogonalLoop=1;jettySize=auto;html=1;noEdgeStyle=1;orthogonal=1;" edge="1" target="twMHJTkQKGjOTuoVNY1T-354" source="twMHJTkQKGjOTuoVNY1T-348" parent="twMHJTkQKGjOTuoVNY1T-66">
          <mxGeometry relative="1" as="geometry">
            <mxPoint x="4372.138333333333" y="5520" as="sourcePoint" />
            <Array as="points">
              <mxPoint x="819.7099999999998" y="362" />
              <mxPoint x="777.4683333333332" y="388" />
            </Array>
          </mxGeometry>
        </mxCell>
        <mxCell id="twMHJTkQKGjOTuoVNY1T-357" style="edgeStyle=orthogonalEdgeStyle;curved=1;sketch=1;orthogonalLoop=1;jettySize=auto;html=1;noEdgeStyle=1;orthogonal=1;" edge="1" parent="twMHJTkQKGjOTuoVNY1T-66" source="twMHJTkQKGjOTuoVNY1T-354" target="twMHJTkQKGjOTuoVNY1T-321">
          <mxGeometry relative="1" as="geometry">
            <Array as="points">
              <mxPoint x="791.7449999999999" y="452" />
              <mxPoint x="797.31" y="465" />
              <mxPoint x="797.31" y="555" />
              <mxPoint x="797.31" y="555" />
              <mxPoint x="797.31" y="645" />
              <mxPoint x="741.9368749999999" y="656" />
            </Array>
          </mxGeometry>
        </mxCell>
        <mxCell id="twMHJTkQKGjOTuoVNY1T-354" value="&lt;font color=&quot;#333333&quot;&gt;Update&lt;/font&gt;" style="whiteSpace=wrap;html=1;sketch=1;flipV=0;flipH=1;" vertex="1" parent="twMHJTkQKGjOTuoVNY1T-66">
          <mxGeometry x="765.3299999999999" y="400" width="52.83" height="40" as="geometry" />
        </mxCell>
        <mxCell id="twMHJTkQKGjOTuoVNY1T-327" value="&lt;i&gt;&lt;b&gt;Diagram Baru&lt;/b&gt;&lt;/i&gt;" style="whiteSpace=wrap;html=1;sketch=1;connectable=1;portConstraintRotation=0;snapToPoint=0;perimeter=rectanglePerimeter;fixDash=0;container=0;dropTarget=0;recursiveResize=1;expand=1;part=0;movable=1;movableLabel=0;autosize=0;fixedWidth=0;resizable=1;cloneable=1;treeFolding=0;treeMoving=0;enumerate=0;jiggle=0;disableMultiStrokeFill=0;disableMultiStroke=0;dashGap=-1;imageAspect=1;absoluteArcSize=0;fillColor=#e1d5e7;strokeColor=#9673a6;" vertex="1" parent="twMHJTkQKGjOTuoVNY1T-66">
          <mxGeometry x="354.0549999999999" y="310" width="130" height="40" as="geometry" />
        </mxCell>
        <mxCell id="twMHJTkQKGjOTuoVNY1T-358" value="" style="edgeStyle=orthogonalEdgeStyle;curved=1;sketch=1;orthogonalLoop=1;jettySize=auto;html=1;noEdgeStyle=1;orthogonal=1;exitX=0.5;exitY=1;exitDx=0;exitDy=0;endArrow=none;entryX=0;entryY=0.25;entryDx=0;entryDy=0;" edge="1" parent="twMHJTkQKGjOTuoVNY1T-66" source="twMHJTkQKGjOTuoVNY1T-289" target="twMHJTkQKGjOTuoVNY1T-321">
          <mxGeometry relative="1" as="geometry">
            <mxPoint x="3225" y="3960" as="sourcePoint" />
            <mxPoint x="3129.25" y="4370" as="targetPoint" />
            <Array as="points">
              <mxPoint x="785" y="272" />
              <mxPoint x="514.0549999999998" y="285" />
              <mxPoint x="514.0549999999998" y="375" />
              <mxPoint x="557.4049999999999" y="375" />
              <mxPoint x="557.4049999999999" y="465" />
              <mxPoint x="557.4049999999999" y="465" />
              <mxPoint x="557.4049999999999" y="555" />
              <mxPoint x="557.4049999999999" y="555" />
              <mxPoint x="557.4049999999999" y="645" />
              <mxPoint x="684.0818749999999" y="654" />
            </Array>
          </mxGeometry>
        </mxCell>
        <mxCell id="twMHJTkQKGjOTuoVNY1T-126" value="" style="group;fillColor=#fff2cc;strokeColor=#d6b656;" vertex="1" connectable="0" parent="1">
          <mxGeometry x="180" y="10" width="120" height="30" as="geometry" />
        </mxCell>
        <mxCell id="twMHJTkQKGjOTuoVNY1T-53" value="" style="rounded=0;whiteSpace=wrap;html=1;fillColor=#fff2cc;strokeColor=#d6b656;sketch=1;fillStyle=solid;" vertex="1" parent="twMHJTkQKGjOTuoVNY1T-126">
          <mxGeometry width="120" height="30" as="geometry" />
        </mxCell>
        <mxCell id="twMHJTkQKGjOTuoVNY1T-57" value="Content" style="text;html=1;strokeColor=none;fillColor=none;align=center;verticalAlign=middle;whiteSpace=wrap;rounded=0;" vertex="1" parent="twMHJTkQKGjOTuoVNY1T-126">
          <mxGeometry x="30" width="60" height="30" as="geometry" />
        </mxCell>
        <mxCell id="twMHJTkQKGjOTuoVNY1T-208" value="Route Portal SIA UAD - Home (Anonymous User)" style="swimlane;startSize=20;horizontal=1;childLayout=flowLayout;flowOrientation=north;resizable=0;interRankCellSpacing=50;containerType=tree;sketch=1;swimlaneLine=1;flipV=0;flipH=0;fontStyle=1" vertex="1" parent="1">
          <mxGeometry x="40" y="60" width="558" height="649" as="geometry" />
        </mxCell>
        <mxCell id="twMHJTkQKGjOTuoVNY1T-209" value="Home (anonymous user)" style="whiteSpace=wrap;html=1;sketch=1;flipV=0;flipH=1;" vertex="1" parent="twMHJTkQKGjOTuoVNY1T-208">
          <mxGeometry x="264.2" y="40" width="100" height="40" as="geometry" />
        </mxCell>
        <mxCell id="twMHJTkQKGjOTuoVNY1T-210" value="Login" style="whiteSpace=wrap;html=1;sketch=1;" vertex="1" parent="twMHJTkQKGjOTuoVNY1T-208">
          <mxGeometry x="439.2" y="130" width="50" height="40" as="geometry" />
        </mxCell>
        <mxCell id="twMHJTkQKGjOTuoVNY1T-211" value="" style="html=1;curved=1;noEdgeStyle=1;orthogonal=1;sketch=1;" edge="1" parent="twMHJTkQKGjOTuoVNY1T-208" source="twMHJTkQKGjOTuoVNY1T-209" target="twMHJTkQKGjOTuoVNY1T-210">
          <mxGeometry relative="1" as="geometry">
            <Array as="points">
              <mxPoint x="350.2" y="92" />
              <mxPoint x="464.2" y="118" />
            </Array>
          </mxGeometry>
        </mxCell>
        <mxCell id="twMHJTkQKGjOTuoVNY1T-212" value="FAQ" style="whiteSpace=wrap;html=1;sketch=1;" vertex="1" parent="twMHJTkQKGjOTuoVNY1T-208">
          <mxGeometry x="369.2" y="130" width="40" height="40" as="geometry" />
        </mxCell>
        <mxCell id="twMHJTkQKGjOTuoVNY1T-213" value="" style="html=1;curved=1;noEdgeStyle=1;orthogonal=1;sketch=1;" edge="1" parent="twMHJTkQKGjOTuoVNY1T-208" source="twMHJTkQKGjOTuoVNY1T-209" target="twMHJTkQKGjOTuoVNY1T-212">
          <mxGeometry relative="1" as="geometry">
            <Array as="points">
              <mxPoint x="332.2" y="94" />
              <mxPoint x="389.2" y="118" />
            </Array>
          </mxGeometry>
        </mxCell>
        <mxCell id="twMHJTkQKGjOTuoVNY1T-214" value="" style="edgeStyle=orthogonalEdgeStyle;curved=1;orthogonalLoop=1;jettySize=auto;html=1;noEdgeStyle=1;orthogonal=1;sketch=1;" edge="1" parent="twMHJTkQKGjOTuoVNY1T-208" source="twMHJTkQKGjOTuoVNY1T-209" target="twMHJTkQKGjOTuoVNY1T-215">
          <mxGeometry relative="1" as="geometry">
            <Array as="points">
              <mxPoint x="314.2" y="96" />
              <mxPoint x="314.2" y="118" />
            </Array>
          </mxGeometry>
        </mxCell>
        <mxCell id="twMHJTkQKGjOTuoVNY1T-215" value="Berita" style="whiteSpace=wrap;html=1;glass=0;sketch=1;" vertex="1" parent="twMHJTkQKGjOTuoVNY1T-208">
          <mxGeometry x="289.2" y="130" width="50" height="40" as="geometry" />
        </mxCell>
        <mxCell id="twMHJTkQKGjOTuoVNY1T-216" value="" style="edgeStyle=orthogonalEdgeStyle;curved=1;orthogonalLoop=1;jettySize=auto;html=1;noEdgeStyle=1;orthogonal=1;sketch=1;" edge="1" parent="twMHJTkQKGjOTuoVNY1T-208" source="twMHJTkQKGjOTuoVNY1T-209" target="twMHJTkQKGjOTuoVNY1T-217">
          <mxGeometry relative="1" as="geometry">
            <Array as="points">
              <mxPoint x="296.2" y="94" />
              <mxPoint x="224.2" y="118" />
            </Array>
          </mxGeometry>
        </mxCell>
        <mxCell id="twMHJTkQKGjOTuoVNY1T-217" value="Info Jadwal &lt;br&gt;Akademik" style="whiteSpace=wrap;html=1;sketch=1;fillColor=#fff2cc;strokeColor=#d6b656;fillStyle=solid;" vertex="1" parent="twMHJTkQKGjOTuoVNY1T-208">
          <mxGeometry x="189.2" y="130" width="70" height="40" as="geometry" />
        </mxCell>
        <mxCell id="twMHJTkQKGjOTuoVNY1T-218" value="" style="edgeStyle=orthogonalEdgeStyle;curved=1;orthogonalLoop=1;jettySize=auto;html=1;noEdgeStyle=1;orthogonal=1;sketch=1;" edge="1" parent="twMHJTkQKGjOTuoVNY1T-208" source="twMHJTkQKGjOTuoVNY1T-209" target="twMHJTkQKGjOTuoVNY1T-219">
          <mxGeometry relative="1" as="geometry">
            <Array as="points">
              <mxPoint x="278.2" y="92" />
              <mxPoint x="114.19999999999999" y="118" />
            </Array>
          </mxGeometry>
        </mxCell>
        <mxCell id="twMHJTkQKGjOTuoVNY1T-219" value="Info Pengumuman" style="whiteSpace=wrap;html=1;sketch=1;fillColor=#fff2cc;strokeColor=#d6b656;fillStyle=solid;" vertex="1" parent="twMHJTkQKGjOTuoVNY1T-208">
          <mxGeometry x="69.19999999999999" y="130" width="90" height="40" as="geometry" />
        </mxCell>
        <mxCell id="twMHJTkQKGjOTuoVNY1T-220" value="" style="edgeStyle=orthogonalEdgeStyle;curved=1;orthogonalLoop=1;jettySize=auto;html=1;noEdgeStyle=1;orthogonal=1;sketch=1;" edge="1" parent="twMHJTkQKGjOTuoVNY1T-208" source="twMHJTkQKGjOTuoVNY1T-215" target="twMHJTkQKGjOTuoVNY1T-221">
          <mxGeometry relative="1" as="geometry">
            <mxPoint x="6892.007557384968" y="12830" as="sourcePoint" />
            <Array as="points">
              <mxPoint x="324.2" y="182" />
              <mxPoint x="169.46499999999997" y="208" />
            </Array>
          </mxGeometry>
        </mxCell>
        <mxCell id="twMHJTkQKGjOTuoVNY1T-221" value="Hashtag" style="whiteSpace=wrap;html=1;sketch=1;fillStyle=solid;" vertex="1" parent="twMHJTkQKGjOTuoVNY1T-208">
          <mxGeometry x="140.71499999999997" y="220" width="57.5" height="40" as="geometry" />
        </mxCell>
        <mxCell id="twMHJTkQKGjOTuoVNY1T-222" value="" style="edgeStyle=orthogonalEdgeStyle;curved=1;orthogonalLoop=1;jettySize=auto;html=1;noEdgeStyle=1;orthogonal=1;sketch=1;" edge="1" parent="twMHJTkQKGjOTuoVNY1T-208" source="twMHJTkQKGjOTuoVNY1T-215" target="twMHJTkQKGjOTuoVNY1T-223">
          <mxGeometry relative="1" as="geometry">
            <mxPoint x="6852.007557384968" y="12750" as="sourcePoint" />
            <Array as="points">
              <mxPoint x="304.2" y="182" />
              <mxPoint x="68.21499999999997" y="208" />
            </Array>
          </mxGeometry>
        </mxCell>
        <mxCell id="twMHJTkQKGjOTuoVNY1T-223" value="Forum Berita&amp;nbsp;" style="whiteSpace=wrap;html=1;sketch=1;fillColor=#fff2cc;strokeColor=#d6b656;fillStyle=solid;" vertex="1" parent="twMHJTkQKGjOTuoVNY1T-208">
          <mxGeometry x="25.714999999999975" y="220" width="85" height="40" as="geometry" />
        </mxCell>
        <mxCell id="twMHJTkQKGjOTuoVNY1T-224" value="" style="edgeStyle=orthogonalEdgeStyle;curved=1;orthogonalLoop=1;jettySize=auto;html=1;noEdgeStyle=1;orthogonal=1;sketch=1;" edge="1" parent="twMHJTkQKGjOTuoVNY1T-208" source="twMHJTkQKGjOTuoVNY1T-223" target="twMHJTkQKGjOTuoVNY1T-225">
          <mxGeometry relative="1" as="geometry">
            <mxPoint x="6834.507557384968" y="12760" as="sourcePoint" />
            <Array as="points">
              <mxPoint x="68.21499999999997" y="272" />
              <mxPoint x="67.5" y="298" />
            </Array>
          </mxGeometry>
        </mxCell>
        <mxCell id="twMHJTkQKGjOTuoVNY1T-225" value="Simpan Tautan Diskusi" style="whiteSpace=wrap;html=1;sketch=1;" vertex="1" parent="twMHJTkQKGjOTuoVNY1T-208">
          <mxGeometry x="20" y="314.25" width="95" height="40" as="geometry" />
        </mxCell>
        <mxCell id="twMHJTkQKGjOTuoVNY1T-226" value="" style="html=1;curved=1;noEdgeStyle=1;orthogonal=1;sketch=1;" edge="1" parent="twMHJTkQKGjOTuoVNY1T-208" source="twMHJTkQKGjOTuoVNY1T-212" target="twMHJTkQKGjOTuoVNY1T-227">
          <mxGeometry relative="1" as="geometry">
            <mxPoint x="5194.007557384968" y="9470" as="sourcePoint" />
            <Array as="points">
              <mxPoint x="389.2" y="182" />
              <mxPoint x="284.69999999999993" y="208" />
            </Array>
          </mxGeometry>
        </mxCell>
        <mxCell id="twMHJTkQKGjOTuoVNY1T-227" value="Menu Navigasi Kategori Informasi" style="whiteSpace=wrap;html=1;sketch=1;" vertex="1" parent="twMHJTkQKGjOTuoVNY1T-208">
          <mxGeometry x="228.21499999999997" y="220" width="112.97" height="40" as="geometry" />
        </mxCell>
        <mxCell id="twMHJTkQKGjOTuoVNY1T-228" value="" style="html=1;curved=1;noEdgeStyle=1;orthogonal=1;sketch=1;" edge="1" parent="twMHJTkQKGjOTuoVNY1T-208" source="twMHJTkQKGjOTuoVNY1T-227" target="twMHJTkQKGjOTuoVNY1T-229">
          <mxGeometry relative="1" as="geometry">
            <mxPoint x="5042.007557384968" y="9480" as="sourcePoint" />
            <Array as="points">
              <mxPoint x="284.69999999999993" y="272" />
              <mxPoint x="272.5" y="298" />
            </Array>
          </mxGeometry>
        </mxCell>
        <mxCell id="twMHJTkQKGjOTuoVNY1T-229" value="Informasi Sesuai Kategori" style="whiteSpace=wrap;html=1;sketch=1;fillColor=#fff2cc;strokeColor=#d6b656;fillStyle=solid;" vertex="1" parent="twMHJTkQKGjOTuoVNY1T-208">
          <mxGeometry x="222.5" y="314.25" width="100" height="40" as="geometry" />
        </mxCell>
        <mxCell id="twMHJTkQKGjOTuoVNY1T-230" value="" style="edgeStyle=orthogonalEdgeStyle;curved=1;orthogonalLoop=1;jettySize=auto;html=1;noEdgeStyle=1;orthogonal=1;sketch=1;" edge="1" parent="twMHJTkQKGjOTuoVNY1T-208" source="twMHJTkQKGjOTuoVNY1T-221" target="twMHJTkQKGjOTuoVNY1T-241">
          <mxGeometry relative="1" as="geometry">
            <mxPoint x="5069.507557384968" y="9320" as="sourcePoint" />
            <Array as="points">
              <mxPoint x="169.46499999999997" y="272" />
              <mxPoint x="168.75" y="298" />
            </Array>
          </mxGeometry>
        </mxCell>
        <mxCell id="twMHJTkQKGjOTuoVNY1T-232" value="" style="edgeStyle=orthogonalEdgeStyle;curved=1;orthogonalLoop=1;jettySize=auto;html=1;noEdgeStyle=1;orthogonal=1;sketch=1;" edge="1" parent="twMHJTkQKGjOTuoVNY1T-208" source="twMHJTkQKGjOTuoVNY1T-225" target="twMHJTkQKGjOTuoVNY1T-233">
          <mxGeometry relative="1" as="geometry">
            <mxPoint x="5042.007557384968" y="9050" as="sourcePoint" />
            <Array as="points">
              <mxPoint x="67.5" y="370.5" />
              <mxPoint x="96.67500000000001" y="396.5" />
            </Array>
          </mxGeometry>
        </mxCell>
        <mxCell id="twMHJTkQKGjOTuoVNY1T-233" value="End" style="whiteSpace=wrap;html=1;sketch=1;" vertex="1" parent="twMHJTkQKGjOTuoVNY1T-208">
          <mxGeometry x="70.225" y="408.5" width="95.8" height="40" as="geometry" />
        </mxCell>
        <mxCell id="twMHJTkQKGjOTuoVNY1T-310" style="edgeStyle=orthogonalEdgeStyle;curved=1;sketch=1;orthogonalLoop=1;jettySize=auto;html=1;noEdgeStyle=1;orthogonal=1;entryX=0.5;entryY=0;entryDx=0;entryDy=0;" edge="1" parent="twMHJTkQKGjOTuoVNY1T-208" source="twMHJTkQKGjOTuoVNY1T-241" target="twMHJTkQKGjOTuoVNY1T-233">
          <mxGeometry relative="1" as="geometry">
            <mxPoint x="2131.007557384968" y="3810" as="targetPoint" />
            <Array as="points">
              <mxPoint x="168.75" y="370.5" />
              <mxPoint x="139.57500000000002" y="396.5" />
            </Array>
          </mxGeometry>
        </mxCell>
        <mxCell id="twMHJTkQKGjOTuoVNY1T-241" value="Login" style="whiteSpace=wrap;html=1;sketch=1;fillStyle=solid;" vertex="1" parent="twMHJTkQKGjOTuoVNY1T-208">
          <mxGeometry x="145" y="314.25" width="47.5" height="40" as="geometry" />
        </mxCell>
        <mxCell id="twMHJTkQKGjOTuoVNY1T-244" value="" style="html=1;curved=1;noEdgeStyle=1;orthogonal=1;sketch=1;" edge="1" parent="twMHJTkQKGjOTuoVNY1T-208" source="twMHJTkQKGjOTuoVNY1T-210" target="twMHJTkQKGjOTuoVNY1T-245">
          <mxGeometry relative="1" as="geometry">
            <mxPoint x="3841.0075573849676" y="7070" as="sourcePoint" />
            <Array as="points">
              <mxPoint x="474.2" y="182" />
              <mxPoint x="497.68499999999995" y="208" />
            </Array>
          </mxGeometry>
        </mxCell>
        <mxCell id="twMHJTkQKGjOTuoVNY1T-245" value="Input NIM &amp;amp; Password" style="whiteSpace=wrap;html=1;sketch=1;" vertex="1" parent="twMHJTkQKGjOTuoVNY1T-208">
          <mxGeometry x="462.685" y="220" width="70" height="40" as="geometry" />
        </mxCell>
        <mxCell id="twMHJTkQKGjOTuoVNY1T-246" value="" style="html=1;curved=1;noEdgeStyle=1;orthogonal=1;sketch=1;" edge="1" parent="twMHJTkQKGjOTuoVNY1T-208" source="twMHJTkQKGjOTuoVNY1T-210" target="twMHJTkQKGjOTuoVNY1T-247">
          <mxGeometry relative="1" as="geometry">
            <mxPoint x="3781.0075573849676" y="6950" as="sourcePoint" />
            <Array as="points">
              <mxPoint x="454.2" y="182" />
              <mxPoint x="401.935" y="208" />
            </Array>
          </mxGeometry>
        </mxCell>
        <mxCell id="twMHJTkQKGjOTuoVNY1T-247" value="Lupa Password" style="whiteSpace=wrap;html=1;sketch=1;" vertex="1" parent="twMHJTkQKGjOTuoVNY1T-208">
          <mxGeometry x="371.185" y="220" width="61.5" height="40" as="geometry" />
        </mxCell>
        <mxCell id="twMHJTkQKGjOTuoVNY1T-248" value="" style="html=1;curved=1;noEdgeStyle=1;orthogonal=1;sketch=1;" edge="1" parent="twMHJTkQKGjOTuoVNY1T-208" source="twMHJTkQKGjOTuoVNY1T-247" target="twMHJTkQKGjOTuoVNY1T-249">
          <mxGeometry relative="1" as="geometry">
            <mxPoint x="3590.4925573849678" y="6800" as="sourcePoint" />
            <Array as="points">
              <mxPoint x="401.935" y="272" />
              <mxPoint x="395.45" y="298" />
            </Array>
          </mxGeometry>
        </mxCell>
        <mxCell id="twMHJTkQKGjOTuoVNY1T-539" style="edgeStyle=orthogonalEdgeStyle;curved=1;sketch=1;orthogonalLoop=1;jettySize=auto;html=1;exitX=0.25;exitY=1;exitDx=0;exitDy=0;entryX=0.75;entryY=0;entryDx=0;entryDy=0;noEdgeStyle=1;orthogonal=1;" edge="1" parent="twMHJTkQKGjOTuoVNY1T-208" source="twMHJTkQKGjOTuoVNY1T-249" target="twMHJTkQKGjOTuoVNY1T-253">
          <mxGeometry relative="1" as="geometry">
            <Array as="points">
              <mxPoint x="414.425" y="370.5" />
              <mxPoint x="368.235" y="383.5" />
              <mxPoint x="368.235" y="473.5" />
              <mxPoint x="296.68375000000003" y="486.5" />
            </Array>
          </mxGeometry>
        </mxCell>
        <mxCell id="twMHJTkQKGjOTuoVNY1T-249" value="Input Email / Username &amp;amp; Robot Verify" style="whiteSpace=wrap;html=1;sketch=1;" vertex="1" parent="twMHJTkQKGjOTuoVNY1T-208">
          <mxGeometry x="352.5" y="310" width="85.9" height="48.5" as="geometry" />
        </mxCell>
        <mxCell id="twMHJTkQKGjOTuoVNY1T-250" value="" style="html=1;curved=1;noEdgeStyle=1;orthogonal=1;sketch=1;" edge="1" parent="twMHJTkQKGjOTuoVNY1T-208" source="twMHJTkQKGjOTuoVNY1T-249" target="twMHJTkQKGjOTuoVNY1T-251">
          <mxGeometry relative="1" as="geometry">
            <mxPoint x="3517.7575573849676" y="6650" as="sourcePoint" />
            <Array as="points">
              <mxPoint x="376.475" y="370.5" />
              <mxPoint x="312.1" y="396.5" />
            </Array>
          </mxGeometry>
        </mxCell>
        <mxCell id="twMHJTkQKGjOTuoVNY1T-251" value="Kirim" style="whiteSpace=wrap;html=1;sketch=1;" vertex="1" parent="twMHJTkQKGjOTuoVNY1T-208">
          <mxGeometry x="285.96500000000003" y="408.5" width="52.27" height="40" as="geometry" />
        </mxCell>
        <mxCell id="twMHJTkQKGjOTuoVNY1T-252" value="" style="html=1;curved=1;noEdgeStyle=1;orthogonal=1;sketch=1;" edge="1" parent="twMHJTkQKGjOTuoVNY1T-208" source="twMHJTkQKGjOTuoVNY1T-251" target="twMHJTkQKGjOTuoVNY1T-253">
          <mxGeometry relative="1" as="geometry">
            <mxPoint x="3419.2425573849678" y="6620" as="sourcePoint" />
            <Array as="points">
              <mxPoint x="312.1" y="460.5" />
              <mxPoint x="263.54875000000004" y="486.5" />
            </Array>
          </mxGeometry>
        </mxCell>
        <mxCell id="twMHJTkQKGjOTuoVNY1T-253" value="Alert Email Terkirim" style="whiteSpace=wrap;html=1;sketch=1;fillColor=#fff2cc;strokeColor=#d6b656;fillStyle=solid;" vertex="1" parent="twMHJTkQKGjOTuoVNY1T-208">
          <mxGeometry x="241.98125000000005" y="498.5" width="76.27" height="40" as="geometry" />
        </mxCell>
        <mxCell id="twMHJTkQKGjOTuoVNY1T-254" value="" style="html=1;curved=1;noEdgeStyle=1;orthogonal=1;sketch=1;" edge="1" parent="twMHJTkQKGjOTuoVNY1T-208" source="twMHJTkQKGjOTuoVNY1T-253" target="twMHJTkQKGjOTuoVNY1T-314">
          <mxGeometry relative="1" as="geometry">
            <mxPoint x="3280.4509167599676" y="6438.5" as="sourcePoint" />
            <Array as="points">
              <mxPoint x="280.11625000000004" y="550.5" />
              <mxPoint x="290.23375000000004" y="576.5" />
            </Array>
          </mxGeometry>
        </mxCell>
        <mxCell id="twMHJTkQKGjOTuoVNY1T-256" value="" style="html=1;curved=1;noEdgeStyle=1;orthogonal=1;sketch=1;" edge="1" parent="twMHJTkQKGjOTuoVNY1T-208" source="twMHJTkQKGjOTuoVNY1T-245" target="twMHJTkQKGjOTuoVNY1T-257">
          <mxGeometry relative="1" as="geometry">
            <mxPoint x="3095.4925573849678" y="5840" as="sourcePoint" />
            <Array as="points">
              <mxPoint x="497.68499999999995" y="272" />
              <mxPoint x="503.4" y="298" />
            </Array>
          </mxGeometry>
        </mxCell>
        <mxCell id="twMHJTkQKGjOTuoVNY1T-257" value="Kirim" style="whiteSpace=wrap;html=1;sketch=1;" vertex="1" parent="twMHJTkQKGjOTuoVNY1T-208">
          <mxGeometry x="468.4" y="314.25" width="70" height="40" as="geometry" />
        </mxCell>
        <mxCell id="twMHJTkQKGjOTuoVNY1T-313" value="" style="html=1;curved=1;noEdgeStyle=1;orthogonal=1;sketch=1;" edge="1" target="twMHJTkQKGjOTuoVNY1T-314" source="twMHJTkQKGjOTuoVNY1T-257" parent="twMHJTkQKGjOTuoVNY1T-208">
          <mxGeometry relative="1" as="geometry">
            <mxPoint x="521.722557384968" y="1160" as="sourcePoint" />
            <Array as="points">
              <mxPoint x="503.4" y="370.5" />
              <mxPoint x="425.825625" y="383.5" />
              <mxPoint x="425.825625" y="473.5" />
              <mxPoint x="425.825625" y="473.5" />
              <mxPoint x="425.825625" y="563.5" />
              <mxPoint x="338.13375" y="576.5" />
            </Array>
          </mxGeometry>
        </mxCell>
        <mxCell id="twMHJTkQKGjOTuoVNY1T-314" value="&lt;i&gt;&lt;b&gt;Home&lt;br&gt;(logged-in user)&lt;/b&gt;&lt;/i&gt;" style="whiteSpace=wrap;html=1;sketch=1;fillColor=#e1d5e7;strokeColor=#9673a6;" vertex="1" parent="twMHJTkQKGjOTuoVNY1T-208">
          <mxGeometry x="261.28375000000005" y="588.5" width="105.8" height="40" as="geometry" />
        </mxCell>
        <mxCell id="twMHJTkQKGjOTuoVNY1T-359" value="Route Portal SIA UAD -&amp;nbsp;Home&amp;nbsp;(Logged-in User)" style="swimlane;html=1;startSize=20;horizontal=0;childLayout=flowLayout;flowOrientation=west;resizable=0;interRankCellSpacing=50;containerType=tree;rounded=0;shadow=0;glass=0;sketch=1;jiggle=0;disableMultiStroke=0;disableMultiStrokeFill=0;fillStyle=solid;strokeColor=#000000;fillColor=none;" vertex="1" parent="1">
          <mxGeometry x="630" y="60" width="980" height="990" as="geometry" />
        </mxCell>
        <mxCell id="twMHJTkQKGjOTuoVNY1T-360" value="Home&lt;br&gt;(logged-in user)" style="whiteSpace=wrap;html=1;rounded=0;shadow=0;glass=0;sketch=1;jiggle=0;disableMultiStroke=0;disableMultiStrokeFill=0;fillStyle=solid;strokeColor=#000000;fillColor=none;" vertex="1" parent="twMHJTkQKGjOTuoVNY1T-359">
          <mxGeometry x="40" y="473.49999999999994" width="90" height="40" as="geometry" />
        </mxCell>
        <mxCell id="twMHJTkQKGjOTuoVNY1T-361" value="Navigasi Menu" style="whiteSpace=wrap;html=1;rounded=0;shadow=0;glass=0;sketch=1;jiggle=0;disableMultiStroke=0;disableMultiStrokeFill=0;fillStyle=solid;strokeColor=#000000;fillColor=none;" vertex="1" parent="twMHJTkQKGjOTuoVNY1T-359">
          <mxGeometry x="185" y="263.49999999999994" width="70" height="40" as="geometry" />
        </mxCell>
        <mxCell id="twMHJTkQKGjOTuoVNY1T-362" value="" style="html=1;curved=1;rounded=0;noEdgeStyle=1;orthogonal=1;sketch=1;" edge="1" parent="twMHJTkQKGjOTuoVNY1T-359" source="twMHJTkQKGjOTuoVNY1T-360" target="twMHJTkQKGjOTuoVNY1T-361">
          <mxGeometry relative="1" as="geometry">
            <Array as="points">
              <mxPoint x="142" y="476.3571428571428" />
              <mxPoint x="168" y="283.49999999999994" />
            </Array>
          </mxGeometry>
        </mxCell>
        <mxCell id="twMHJTkQKGjOTuoVNY1T-363" value="&lt;span style=&quot;color: rgb(51, 51, 51);&quot;&gt;Info Status Mahasiswa&lt;/span&gt;" style="whiteSpace=wrap;html=1;rounded=0;shadow=0;glass=0;sketch=1;jiggle=0;disableMultiStroke=0;disableMultiStrokeFill=0;fillStyle=solid;strokeColor=#d6b656;fillColor=#fff2cc;" vertex="1" parent="twMHJTkQKGjOTuoVNY1T-359">
          <mxGeometry x="185" y="333.49999999999994" width="70" height="40" as="geometry" />
        </mxCell>
        <mxCell id="twMHJTkQKGjOTuoVNY1T-364" value="" style="html=1;curved=1;rounded=0;noEdgeStyle=1;orthogonal=1;sketch=1;" edge="1" parent="twMHJTkQKGjOTuoVNY1T-359" source="twMHJTkQKGjOTuoVNY1T-360" target="twMHJTkQKGjOTuoVNY1T-363">
          <mxGeometry relative="1" as="geometry">
            <Array as="points">
              <mxPoint x="144" y="482.0714285714285" />
              <mxPoint x="168" y="353.49999999999994" />
            </Array>
          </mxGeometry>
        </mxCell>
        <mxCell id="twMHJTkQKGjOTuoVNY1T-368" value="" style="edgeStyle=orthogonalEdgeStyle;curved=1;sketch=1;orthogonalLoop=1;jettySize=auto;html=1;noEdgeStyle=1;orthogonal=1;" edge="1" source="twMHJTkQKGjOTuoVNY1T-360" target="twMHJTkQKGjOTuoVNY1T-369" parent="twMHJTkQKGjOTuoVNY1T-359">
          <mxGeometry relative="1" as="geometry">
            <Array as="points">
              <mxPoint x="146" y="487.7857142857142" />
              <mxPoint x="168" y="423.49999999999994" />
            </Array>
          </mxGeometry>
        </mxCell>
        <mxCell id="twMHJTkQKGjOTuoVNY1T-369" value="&lt;span style=&quot;color: rgb(51, 51, 51);&quot;&gt;Info Pengumuman&lt;/span&gt;" style="whiteSpace=wrap;html=1;rounded=0;shadow=0;glass=0;sketch=1;jiggle=0;disableMultiStroke=0;disableMultiStrokeFill=0;fillStyle=solid;strokeColor=#d6b656;fillColor=#fff2cc;" vertex="1" parent="twMHJTkQKGjOTuoVNY1T-359">
          <mxGeometry x="180" y="403.49999999999994" width="80" height="40" as="geometry" />
        </mxCell>
        <mxCell id="twMHJTkQKGjOTuoVNY1T-370" value="" style="edgeStyle=orthogonalEdgeStyle;curved=1;sketch=1;orthogonalLoop=1;jettySize=auto;html=1;noEdgeStyle=1;orthogonal=1;" edge="1" source="twMHJTkQKGjOTuoVNY1T-360" target="twMHJTkQKGjOTuoVNY1T-371" parent="twMHJTkQKGjOTuoVNY1T-359">
          <mxGeometry relative="1" as="geometry">
            <Array as="points">
              <mxPoint x="148" y="493.49999999999994" />
              <mxPoint x="168" y="493.49999999999994" />
            </Array>
          </mxGeometry>
        </mxCell>
        <mxCell id="twMHJTkQKGjOTuoVNY1T-371" value="&lt;span style=&quot;color: rgb(51, 51, 51);&quot;&gt;Berita&lt;/span&gt;" style="whiteSpace=wrap;html=1;rounded=0;shadow=0;glass=0;sketch=1;jiggle=0;disableMultiStroke=0;disableMultiStrokeFill=0;fillStyle=solid;strokeColor=#000000;fillColor=none;" vertex="1" parent="twMHJTkQKGjOTuoVNY1T-359">
          <mxGeometry x="182.5" y="473.49999999999994" width="75" height="40" as="geometry" />
        </mxCell>
        <mxCell id="twMHJTkQKGjOTuoVNY1T-372" value="" style="edgeStyle=orthogonalEdgeStyle;curved=1;sketch=1;orthogonalLoop=1;jettySize=auto;html=1;noEdgeStyle=1;orthogonal=1;" edge="1" target="twMHJTkQKGjOTuoVNY1T-373" source="twMHJTkQKGjOTuoVNY1T-360" parent="twMHJTkQKGjOTuoVNY1T-359">
          <mxGeometry relative="1" as="geometry">
            <mxPoint x="7250" y="4216.25" as="sourcePoint" />
            <Array as="points">
              <mxPoint x="146" y="499.21428571428567" />
              <mxPoint x="168" y="565" />
            </Array>
          </mxGeometry>
        </mxCell>
        <mxCell id="twMHJTkQKGjOTuoVNY1T-373" value="&lt;span style=&quot;color: rgb(51, 51, 51);&quot;&gt;Info Jadwal Akademik&lt;/span&gt;" style="whiteSpace=wrap;html=1;rounded=0;shadow=0;glass=0;sketch=1;jiggle=0;disableMultiStroke=0;disableMultiStrokeFill=0;fillStyle=solid;strokeColor=#d6b656;fillColor=#fff2cc;" vertex="1" parent="twMHJTkQKGjOTuoVNY1T-359">
          <mxGeometry x="190" y="545" width="60" height="40" as="geometry" />
        </mxCell>
        <mxCell id="twMHJTkQKGjOTuoVNY1T-374" value="" style="edgeStyle=orthogonalEdgeStyle;curved=1;sketch=1;orthogonalLoop=1;jettySize=auto;html=1;noEdgeStyle=1;orthogonal=1;" edge="1" target="twMHJTkQKGjOTuoVNY1T-375" source="twMHJTkQKGjOTuoVNY1T-360" parent="twMHJTkQKGjOTuoVNY1T-359">
          <mxGeometry relative="1" as="geometry">
            <mxPoint x="8360" y="3331" as="sourcePoint" />
            <Array as="points">
              <mxPoint x="144" y="504.9285714285714" />
              <mxPoint x="168" y="636.5" />
            </Array>
          </mxGeometry>
        </mxCell>
        <mxCell id="twMHJTkQKGjOTuoVNY1T-375" value="&lt;span style=&quot;color: rgb(51, 51, 51);&quot;&gt;Notifikasi&lt;/span&gt;" style="whiteSpace=wrap;html=1;rounded=0;shadow=0;glass=0;sketch=1;jiggle=0;disableMultiStroke=0;disableMultiStrokeFill=0;fillStyle=solid;strokeColor=#000000;fillColor=none;" vertex="1" parent="twMHJTkQKGjOTuoVNY1T-359">
          <mxGeometry x="185" y="616.5" width="70" height="40" as="geometry" />
        </mxCell>
        <mxCell id="twMHJTkQKGjOTuoVNY1T-376" value="" style="edgeStyle=orthogonalEdgeStyle;curved=1;sketch=1;orthogonalLoop=1;jettySize=auto;html=1;noEdgeStyle=1;orthogonal=1;" edge="1" target="twMHJTkQKGjOTuoVNY1T-377" source="twMHJTkQKGjOTuoVNY1T-360" parent="twMHJTkQKGjOTuoVNY1T-359">
          <mxGeometry relative="1" as="geometry">
            <mxPoint x="8280" y="3326.6666666666665" as="sourcePoint" />
            <Array as="points">
              <mxPoint x="142" y="510.6428571428571" />
              <mxPoint x="168" y="783.75" />
            </Array>
          </mxGeometry>
        </mxCell>
        <mxCell id="twMHJTkQKGjOTuoVNY1T-377" value="&lt;span style=&quot;color: rgb(51, 51, 51);&quot;&gt;Akun&lt;/span&gt;" style="whiteSpace=wrap;html=1;rounded=0;shadow=0;glass=0;sketch=1;jiggle=0;disableMultiStroke=0;disableMultiStrokeFill=0;fillStyle=solid;strokeColor=#000000;fillColor=none;" vertex="1" parent="twMHJTkQKGjOTuoVNY1T-359">
          <mxGeometry x="185" y="763.75" width="70" height="40" as="geometry" />
        </mxCell>
        <mxCell id="twMHJTkQKGjOTuoVNY1T-378" value="" style="edgeStyle=orthogonalEdgeStyle;curved=1;sketch=1;orthogonalLoop=1;jettySize=auto;html=1;noEdgeStyle=1;orthogonal=1;" edge="1" target="twMHJTkQKGjOTuoVNY1T-379" source="twMHJTkQKGjOTuoVNY1T-377" parent="twMHJTkQKGjOTuoVNY1T-359">
          <mxGeometry relative="1" as="geometry">
            <mxPoint x="7960" y="3202.1428571428573" as="sourcePoint" />
            <Array as="points">
              <mxPoint x="272" y="773.75" />
              <mxPoint x="298" y="810" />
            </Array>
          </mxGeometry>
        </mxCell>
        <mxCell id="twMHJTkQKGjOTuoVNY1T-379" value="&lt;span style=&quot;color: rgb(51, 51, 51);&quot;&gt;Profile&lt;/span&gt;" style="whiteSpace=wrap;html=1;rounded=0;shadow=0;glass=0;sketch=1;jiggle=0;disableMultiStroke=0;disableMultiStrokeFill=0;fillStyle=solid;strokeColor=#000000;fillColor=none;" vertex="1" parent="twMHJTkQKGjOTuoVNY1T-359">
          <mxGeometry x="325" y="790" width="70" height="40" as="geometry" />
        </mxCell>
        <mxCell id="twMHJTkQKGjOTuoVNY1T-380" value="" style="edgeStyle=orthogonalEdgeStyle;curved=1;sketch=1;orthogonalLoop=1;jettySize=auto;html=1;noEdgeStyle=1;orthogonal=1;" edge="1" target="twMHJTkQKGjOTuoVNY1T-381" source="twMHJTkQKGjOTuoVNY1T-377" parent="twMHJTkQKGjOTuoVNY1T-359">
          <mxGeometry relative="1" as="geometry">
            <mxPoint x="8015" y="3355" as="sourcePoint" />
            <Array as="points">
              <mxPoint x="274" y="783.75" />
              <mxPoint x="298" y="880" />
            </Array>
          </mxGeometry>
        </mxCell>
        <mxCell id="twMHJTkQKGjOTuoVNY1T-381" value="&lt;span style=&quot;color: rgb(51, 51, 51);&quot;&gt;Inbox&lt;br&gt;&lt;/span&gt;" style="whiteSpace=wrap;html=1;rounded=0;shadow=0;glass=0;sketch=1;jiggle=0;disableMultiStroke=0;disableMultiStrokeFill=0;fillStyle=solid;strokeColor=#000000;fillColor=none;" vertex="1" parent="twMHJTkQKGjOTuoVNY1T-359">
          <mxGeometry x="325" y="860" width="70" height="40" as="geometry" />
        </mxCell>
        <mxCell id="twMHJTkQKGjOTuoVNY1T-382" value="" style="edgeStyle=orthogonalEdgeStyle;curved=1;sketch=1;orthogonalLoop=1;jettySize=auto;html=1;noEdgeStyle=1;orthogonal=1;" edge="1" target="twMHJTkQKGjOTuoVNY1T-383" source="twMHJTkQKGjOTuoVNY1T-377" parent="twMHJTkQKGjOTuoVNY1T-359">
          <mxGeometry relative="1" as="geometry">
            <mxPoint x="7935" y="3322.5" as="sourcePoint" />
            <Array as="points">
              <mxPoint x="272" y="793.75" />
              <mxPoint x="298" y="950" />
            </Array>
          </mxGeometry>
        </mxCell>
        <mxCell id="twMHJTkQKGjOTuoVNY1T-383" value="&lt;span style=&quot;color: rgb(51, 51, 51);&quot;&gt;Logout&lt;br&gt;&lt;/span&gt;" style="whiteSpace=wrap;html=1;rounded=0;shadow=0;glass=0;sketch=1;jiggle=0;disableMultiStroke=0;disableMultiStrokeFill=0;fillStyle=solid;strokeColor=#000000;fillColor=none;" vertex="1" parent="twMHJTkQKGjOTuoVNY1T-359">
          <mxGeometry x="325" y="930" width="70" height="40" as="geometry" />
        </mxCell>
        <mxCell id="twMHJTkQKGjOTuoVNY1T-384" value="" style="edgeStyle=orthogonalEdgeStyle;curved=1;sketch=1;orthogonalLoop=1;jettySize=auto;html=1;noEdgeStyle=1;orthogonal=1;" edge="1" target="twMHJTkQKGjOTuoVNY1T-385" source="twMHJTkQKGjOTuoVNY1T-383" parent="twMHJTkQKGjOTuoVNY1T-359">
          <mxGeometry relative="1" as="geometry">
            <mxPoint x="7855" y="3285" as="sourcePoint" />
            <Array as="points">
              <mxPoint x="422" y="950" />
              <mxPoint x="435" y="825.9375" />
              <mxPoint x="555" y="825.9375" />
              <mxPoint x="555" y="825.9375" />
              <mxPoint x="675" y="825.9375" />
              <mxPoint x="675" y="825.9375" />
              <mxPoint x="775" y="825.9375" />
              <mxPoint x="775" y="825.9375" />
              <mxPoint x="891.1300000000001" y="825.9375" />
              <mxPoint x="904.1300000000001" y="672.7700000000002" />
            </Array>
          </mxGeometry>
        </mxCell>
        <mxCell id="twMHJTkQKGjOTuoVNY1T-385" value="&lt;span style=&quot;color: rgb(51, 51, 51);&quot;&gt;End&lt;br&gt;&lt;/span&gt;" style="whiteSpace=wrap;html=1;rounded=0;shadow=0;glass=0;sketch=1;jiggle=0;disableMultiStroke=0;disableMultiStrokeFill=0;fillStyle=solid;strokeColor=#000000;fillColor=none;" vertex="1" parent="twMHJTkQKGjOTuoVNY1T-359">
          <mxGeometry x="916.1300000000001" y="325.935" width="43.87" height="378.13" as="geometry" />
        </mxCell>
        <mxCell id="twMHJTkQKGjOTuoVNY1T-386" value="" style="edgeStyle=orthogonalEdgeStyle;curved=1;sketch=1;orthogonalLoop=1;jettySize=auto;html=1;noEdgeStyle=1;orthogonal=1;" edge="1" target="twMHJTkQKGjOTuoVNY1T-387" source="twMHJTkQKGjOTuoVNY1T-379" parent="twMHJTkQKGjOTuoVNY1T-359">
          <mxGeometry relative="1" as="geometry">
            <mxPoint x="7775" y="3225" as="sourcePoint" />
            <Array as="points">
              <mxPoint x="422" y="800" />
              <mxPoint x="448" y="598.75" />
            </Array>
          </mxGeometry>
        </mxCell>
        <mxCell id="twMHJTkQKGjOTuoVNY1T-387" value="&lt;span style=&quot;color: rgb(51, 51, 51);&quot;&gt;Biodata&lt;/span&gt;" style="whiteSpace=wrap;html=1;rounded=0;shadow=0;glass=0;sketch=1;jiggle=0;disableMultiStroke=0;disableMultiStrokeFill=0;fillStyle=solid;strokeColor=#000000;fillColor=none;" vertex="1" parent="twMHJTkQKGjOTuoVNY1T-359">
          <mxGeometry x="465" y="578.75" width="60" height="40" as="geometry" />
        </mxCell>
        <mxCell id="twMHJTkQKGjOTuoVNY1T-388" value="" style="edgeStyle=orthogonalEdgeStyle;curved=1;sketch=1;orthogonalLoop=1;jettySize=auto;html=1;noEdgeStyle=1;orthogonal=1;" edge="1" target="twMHJTkQKGjOTuoVNY1T-389" source="twMHJTkQKGjOTuoVNY1T-379" parent="twMHJTkQKGjOTuoVNY1T-359">
          <mxGeometry relative="1" as="geometry">
            <mxPoint x="7830" y="2915" as="sourcePoint" />
            <Array as="points">
              <mxPoint x="424" y="810" />
              <mxPoint x="448" y="668.75" />
            </Array>
          </mxGeometry>
        </mxCell>
        <mxCell id="twMHJTkQKGjOTuoVNY1T-394" style="edgeStyle=orthogonalEdgeStyle;curved=1;sketch=1;orthogonalLoop=1;jettySize=auto;html=1;noEdgeStyle=1;orthogonal=1;" edge="1" parent="twMHJTkQKGjOTuoVNY1T-359" source="twMHJTkQKGjOTuoVNY1T-389" target="twMHJTkQKGjOTuoVNY1T-393">
          <mxGeometry relative="1" as="geometry">
            <Array as="points">
              <mxPoint x="542" y="668.75" />
              <mxPoint x="566" y="575" />
            </Array>
          </mxGeometry>
        </mxCell>
        <mxCell id="twMHJTkQKGjOTuoVNY1T-389" value="&lt;span style=&quot;color: rgb(51, 51, 51);&quot;&gt;Profile Akun&lt;/span&gt;" style="whiteSpace=wrap;html=1;rounded=0;shadow=0;glass=0;sketch=1;jiggle=0;disableMultiStroke=0;disableMultiStrokeFill=0;fillStyle=solid;strokeColor=#000000;fillColor=none;" vertex="1" parent="twMHJTkQKGjOTuoVNY1T-359">
          <mxGeometry x="470" y="648.75" width="50" height="40" as="geometry" />
        </mxCell>
        <mxCell id="twMHJTkQKGjOTuoVNY1T-390" value="" style="edgeStyle=orthogonalEdgeStyle;curved=1;sketch=1;orthogonalLoop=1;jettySize=auto;html=1;noEdgeStyle=1;orthogonal=1;" edge="1" target="twMHJTkQKGjOTuoVNY1T-391" source="twMHJTkQKGjOTuoVNY1T-379" parent="twMHJTkQKGjOTuoVNY1T-359">
          <mxGeometry relative="1" as="geometry">
            <mxPoint x="7750" y="2882.5" as="sourcePoint" />
            <Array as="points">
              <mxPoint x="422" y="820" />
              <mxPoint x="448" y="738.75" />
            </Array>
          </mxGeometry>
        </mxCell>
        <mxCell id="twMHJTkQKGjOTuoVNY1T-395" style="edgeStyle=orthogonalEdgeStyle;curved=1;sketch=1;orthogonalLoop=1;jettySize=auto;html=1;noEdgeStyle=1;orthogonal=1;" edge="1" parent="twMHJTkQKGjOTuoVNY1T-359" source="twMHJTkQKGjOTuoVNY1T-391" target="twMHJTkQKGjOTuoVNY1T-393">
          <mxGeometry relative="1" as="geometry">
            <Array as="points">
              <mxPoint x="542" y="738.75" />
              <mxPoint x="568" y="585" />
            </Array>
          </mxGeometry>
        </mxCell>
        <mxCell id="twMHJTkQKGjOTuoVNY1T-391" value="&lt;span style=&quot;color: rgb(51, 51, 51);&quot;&gt;Ubah Password&lt;/span&gt;" style="whiteSpace=wrap;html=1;rounded=0;shadow=0;glass=0;sketch=1;jiggle=0;disableMultiStroke=0;disableMultiStrokeFill=0;fillStyle=solid;strokeColor=#000000;fillColor=none;" vertex="1" parent="twMHJTkQKGjOTuoVNY1T-359">
          <mxGeometry x="460" y="718.75" width="70" height="40" as="geometry" />
        </mxCell>
        <mxCell id="twMHJTkQKGjOTuoVNY1T-392" value="" style="edgeStyle=orthogonalEdgeStyle;curved=1;sketch=1;orthogonalLoop=1;jettySize=auto;html=1;noEdgeStyle=1;orthogonal=1;" edge="1" target="twMHJTkQKGjOTuoVNY1T-393" source="twMHJTkQKGjOTuoVNY1T-387" parent="twMHJTkQKGjOTuoVNY1T-359">
          <mxGeometry relative="1" as="geometry">
            <mxPoint x="7670" y="2825" as="sourcePoint" />
            <Array as="points">
              <mxPoint x="542" y="598.75" />
              <mxPoint x="568" y="565" />
            </Array>
          </mxGeometry>
        </mxCell>
        <mxCell id="twMHJTkQKGjOTuoVNY1T-396" style="edgeStyle=orthogonalEdgeStyle;curved=1;sketch=1;orthogonalLoop=1;jettySize=auto;html=1;entryX=-0.059;entryY=0.831;entryDx=0;entryDy=0;noEdgeStyle=1;orthogonal=1;entryPerimeter=0;" edge="1" parent="twMHJTkQKGjOTuoVNY1T-359" source="twMHJTkQKGjOTuoVNY1T-393" target="twMHJTkQKGjOTuoVNY1T-385">
          <mxGeometry relative="1" as="geometry">
            <Array as="points">
              <mxPoint x="662" y="575" />
              <mxPoint x="675" y="575" />
              <mxPoint x="775" y="575" />
              <mxPoint x="775" y="575" />
              <mxPoint x="891.1300000000001" y="575" />
              <mxPoint x="902.1300000000001" y="620.1800000000002" />
            </Array>
          </mxGeometry>
        </mxCell>
        <mxCell id="twMHJTkQKGjOTuoVNY1T-393" value="&lt;font color=&quot;#333333&quot;&gt;Update&lt;/font&gt;" style="whiteSpace=wrap;html=1;rounded=0;shadow=0;glass=0;sketch=1;jiggle=0;disableMultiStroke=0;disableMultiStrokeFill=0;fillStyle=solid;strokeColor=#000000;fillColor=none;" vertex="1" parent="twMHJTkQKGjOTuoVNY1T-359">
          <mxGeometry x="580" y="555" width="70" height="40" as="geometry" />
        </mxCell>
        <mxCell id="twMHJTkQKGjOTuoVNY1T-397" value="" style="edgeStyle=orthogonalEdgeStyle;curved=1;sketch=1;orthogonalLoop=1;jettySize=auto;html=1;noEdgeStyle=1;orthogonal=1;" edge="1" target="twMHJTkQKGjOTuoVNY1T-398" source="twMHJTkQKGjOTuoVNY1T-375" parent="twMHJTkQKGjOTuoVNY1T-359">
          <mxGeometry relative="1" as="geometry">
            <mxPoint x="7160" y="2796.4285714285716" as="sourcePoint" />
            <Array as="points">
              <mxPoint x="272" y="636.5" />
              <mxPoint x="298" y="740" />
            </Array>
          </mxGeometry>
        </mxCell>
        <mxCell id="twMHJTkQKGjOTuoVNY1T-399" style="edgeStyle=orthogonalEdgeStyle;curved=1;sketch=1;orthogonalLoop=1;jettySize=auto;html=1;noEdgeStyle=1;orthogonal=1;" edge="1" parent="twMHJTkQKGjOTuoVNY1T-359" source="twMHJTkQKGjOTuoVNY1T-398" target="twMHJTkQKGjOTuoVNY1T-385">
          <mxGeometry relative="1" as="geometry">
            <Array as="points">
              <mxPoint x="422" y="740" />
              <mxPoint x="435" y="548.75" />
              <mxPoint x="555" y="548.75" />
              <mxPoint x="555" y="525" />
              <mxPoint x="675" y="525" />
              <mxPoint x="675" y="545" />
              <mxPoint x="775" y="545" />
              <mxPoint x="775" y="545" />
              <mxPoint x="891.1300000000001" y="545" />
              <mxPoint x="900.1300000000001" y="567.5900000000001" />
            </Array>
          </mxGeometry>
        </mxCell>
        <mxCell id="twMHJTkQKGjOTuoVNY1T-398" value="&lt;span style=&quot;color: rgb(51, 51, 51);&quot;&gt;Lihat Semua Notifikasi&lt;/span&gt;" style="whiteSpace=wrap;html=1;rounded=0;shadow=0;glass=0;sketch=1;jiggle=0;disableMultiStroke=0;disableMultiStrokeFill=0;fillStyle=solid;strokeColor=#000000;fillColor=none;" vertex="1" parent="twMHJTkQKGjOTuoVNY1T-359">
          <mxGeometry x="320" y="720" width="80" height="40" as="geometry" />
        </mxCell>
        <mxCell id="twMHJTkQKGjOTuoVNY1T-400" value="" style="edgeStyle=orthogonalEdgeStyle;curved=1;sketch=1;orthogonalLoop=1;jettySize=auto;html=1;noEdgeStyle=1;orthogonal=1;" edge="1" target="twMHJTkQKGjOTuoVNY1T-401" source="twMHJTkQKGjOTuoVNY1T-371" parent="twMHJTkQKGjOTuoVNY1T-359">
          <mxGeometry relative="1" as="geometry">
            <mxPoint x="6600" y="2505" as="sourcePoint" />
            <Array as="points">
              <mxPoint x="272" y="485.99999999999994" />
              <mxPoint x="298" y="600" />
            </Array>
          </mxGeometry>
        </mxCell>
        <mxCell id="twMHJTkQKGjOTuoVNY1T-408" style="edgeStyle=orthogonalEdgeStyle;curved=1;sketch=1;orthogonalLoop=1;jettySize=auto;html=1;entryX=0;entryY=0.5;entryDx=0;entryDy=0;noEdgeStyle=1;orthogonal=1;" edge="1" parent="twMHJTkQKGjOTuoVNY1T-359" source="twMHJTkQKGjOTuoVNY1T-401" target="twMHJTkQKGjOTuoVNY1T-404">
          <mxGeometry relative="1" as="geometry">
            <Array as="points">
              <mxPoint x="422" y="600" />
              <mxPoint x="448" y="406.25" />
            </Array>
          </mxGeometry>
        </mxCell>
        <mxCell id="twMHJTkQKGjOTuoVNY1T-401" value="&lt;span style=&quot;color: rgb(51, 51, 51);&quot;&gt;Hashtag&lt;/span&gt;" style="whiteSpace=wrap;html=1;rounded=0;shadow=0;glass=0;sketch=1;jiggle=0;disableMultiStroke=0;disableMultiStrokeFill=0;fillStyle=solid;strokeColor=#000000;fillColor=none;" vertex="1" parent="twMHJTkQKGjOTuoVNY1T-359">
          <mxGeometry x="326.25" y="580" width="67.5" height="40" as="geometry" />
        </mxCell>
        <mxCell id="twMHJTkQKGjOTuoVNY1T-409" style="edgeStyle=orthogonalEdgeStyle;curved=1;sketch=1;orthogonalLoop=1;jettySize=auto;html=1;entryX=0;entryY=0.5;entryDx=0;entryDy=0;noEdgeStyle=1;orthogonal=1;" edge="1" parent="twMHJTkQKGjOTuoVNY1T-359" source="twMHJTkQKGjOTuoVNY1T-404" target="twMHJTkQKGjOTuoVNY1T-405">
          <mxGeometry relative="1" as="geometry">
            <Array as="points">
              <mxPoint x="542" y="406.25" />
              <mxPoint x="568" y="430.625" />
            </Array>
          </mxGeometry>
        </mxCell>
        <mxCell id="twMHJTkQKGjOTuoVNY1T-404" value="Informasi Diskusi" style="whiteSpace=wrap;html=1;sketch=1;fillColor=#fff2cc;strokeColor=#d6b656;fillStyle=solid;" vertex="1" parent="twMHJTkQKGjOTuoVNY1T-359">
          <mxGeometry x="465.38" y="386.25" width="59.24" height="40" as="geometry" />
        </mxCell>
        <mxCell id="twMHJTkQKGjOTuoVNY1T-410" style="edgeStyle=orthogonalEdgeStyle;curved=1;sketch=1;orthogonalLoop=1;jettySize=auto;html=1;entryX=0;entryY=0.5;entryDx=0;entryDy=0;noEdgeStyle=1;orthogonal=1;" edge="1" parent="twMHJTkQKGjOTuoVNY1T-359" source="twMHJTkQKGjOTuoVNY1T-405" target="twMHJTkQKGjOTuoVNY1T-406">
          <mxGeometry relative="1" as="geometry">
            <Array as="points">
              <mxPoint x="662" y="430.625" />
              <mxPoint x="688" y="455" />
            </Array>
          </mxGeometry>
        </mxCell>
        <mxCell id="twMHJTkQKGjOTuoVNY1T-405" value="Klik Tag" style="whiteSpace=wrap;html=1;sketch=1;fillStyle=solid;" vertex="1" parent="twMHJTkQKGjOTuoVNY1T-359">
          <mxGeometry x="593.75" y="410.625" width="42.5" height="40" as="geometry" />
        </mxCell>
        <mxCell id="twMHJTkQKGjOTuoVNY1T-411" style="edgeStyle=orthogonalEdgeStyle;curved=1;sketch=1;orthogonalLoop=1;jettySize=auto;html=1;entryX=0;entryY=0.5;entryDx=0;entryDy=0;noEdgeStyle=1;orthogonal=1;" edge="1" parent="twMHJTkQKGjOTuoVNY1T-359" source="twMHJTkQKGjOTuoVNY1T-406" target="twMHJTkQKGjOTuoVNY1T-407">
          <mxGeometry relative="1" as="geometry">
            <Array as="points">
              <mxPoint x="762" y="455" />
              <mxPoint x="788" y="465" />
            </Array>
          </mxGeometry>
        </mxCell>
        <mxCell id="twMHJTkQKGjOTuoVNY1T-406" value="Mulai Diskusi" style="whiteSpace=wrap;html=1;sketch=1;fillStyle=solid;" vertex="1" parent="twMHJTkQKGjOTuoVNY1T-359">
          <mxGeometry x="700" y="435" width="50" height="40" as="geometry" />
        </mxCell>
        <mxCell id="twMHJTkQKGjOTuoVNY1T-412" style="edgeStyle=orthogonalEdgeStyle;curved=1;sketch=1;orthogonalLoop=1;jettySize=auto;html=1;noEdgeStyle=1;orthogonal=1;" edge="1" parent="twMHJTkQKGjOTuoVNY1T-359" source="twMHJTkQKGjOTuoVNY1T-407" target="twMHJTkQKGjOTuoVNY1T-385">
          <mxGeometry relative="1" as="geometry">
            <Array as="points">
              <mxPoint x="878.13" y="465" />
              <mxPoint x="900.1300000000001" y="462.4100000000001" />
            </Array>
          </mxGeometry>
        </mxCell>
        <mxCell id="twMHJTkQKGjOTuoVNY1T-407" value="Tulis Komentar" style="whiteSpace=wrap;html=1;sketch=1;fillStyle=solid;" vertex="1" parent="twMHJTkQKGjOTuoVNY1T-359">
          <mxGeometry x="800" y="445" width="66.13" height="40" as="geometry" />
        </mxCell>
        <mxCell id="twMHJTkQKGjOTuoVNY1T-413" value="" style="edgeStyle=orthogonalEdgeStyle;curved=1;sketch=1;orthogonalLoop=1;jettySize=auto;html=1;noEdgeStyle=1;orthogonal=1;" edge="1" target="twMHJTkQKGjOTuoVNY1T-414" source="twMHJTkQKGjOTuoVNY1T-371" parent="twMHJTkQKGjOTuoVNY1T-359">
          <mxGeometry relative="1" as="geometry">
            <mxPoint x="6137.499999999999" y="2205" as="sourcePoint" />
            <Array as="points">
              <mxPoint x="272" y="500.99999999999994" />
              <mxPoint x="298" y="670" />
            </Array>
          </mxGeometry>
        </mxCell>
        <mxCell id="twMHJTkQKGjOTuoVNY1T-414" value="&lt;span style=&quot;color: rgb(51, 51, 51);&quot;&gt;Forum Berita&lt;/span&gt;" style="whiteSpace=wrap;html=1;rounded=0;shadow=0;glass=0;sketch=1;jiggle=0;disableMultiStroke=0;disableMultiStrokeFill=0;fillStyle=solid;strokeColor=#d6b656;fillColor=#fff2cc;" vertex="1" parent="twMHJTkQKGjOTuoVNY1T-359">
          <mxGeometry x="333.125" y="650" width="53.75" height="40" as="geometry" />
        </mxCell>
        <mxCell id="twMHJTkQKGjOTuoVNY1T-417" value="" style="edgeStyle=orthogonalEdgeStyle;curved=1;sketch=1;orthogonalLoop=1;jettySize=auto;html=1;noEdgeStyle=1;orthogonal=1;" edge="1" target="twMHJTkQKGjOTuoVNY1T-418" source="twMHJTkQKGjOTuoVNY1T-414" parent="twMHJTkQKGjOTuoVNY1T-359">
          <mxGeometry relative="1" as="geometry">
            <mxPoint x="5937.5" y="2112.5" as="sourcePoint" />
            <Array as="points">
              <mxPoint x="422" y="670" />
              <mxPoint x="448" y="487.5" />
            </Array>
          </mxGeometry>
        </mxCell>
        <mxCell id="twMHJTkQKGjOTuoVNY1T-419" style="edgeStyle=orthogonalEdgeStyle;curved=1;sketch=1;orthogonalLoop=1;jettySize=auto;html=1;entryX=0;entryY=0.5;entryDx=0;entryDy=0;noEdgeStyle=1;orthogonal=1;" edge="1" parent="twMHJTkQKGjOTuoVNY1T-359" source="twMHJTkQKGjOTuoVNY1T-418" target="twMHJTkQKGjOTuoVNY1T-385">
          <mxGeometry relative="1" as="geometry">
            <Array as="points">
              <mxPoint x="542" y="487.5" />
              <mxPoint x="555" y="495" />
              <mxPoint x="675" y="495" />
              <mxPoint x="675" y="515" />
              <mxPoint x="775" y="515" />
              <mxPoint x="775" y="515" />
              <mxPoint x="891.1300000000001" y="515" />
              <mxPoint x="898.1300000000001" y="515.0000000000001" />
            </Array>
          </mxGeometry>
        </mxCell>
        <mxCell id="twMHJTkQKGjOTuoVNY1T-418" value="&lt;span style=&quot;color: rgb(51, 51, 51);&quot;&gt;Simpan Tautan Diskusi&lt;/span&gt;" style="whiteSpace=wrap;html=1;rounded=0;shadow=0;glass=0;sketch=1;jiggle=0;disableMultiStroke=0;disableMultiStrokeFill=0;fillStyle=solid;strokeColor=#000000;fillColor=none;" vertex="1" parent="twMHJTkQKGjOTuoVNY1T-359">
          <mxGeometry x="465" y="456.25" width="60" height="62.5" as="geometry" />
        </mxCell>
        <mxCell id="twMHJTkQKGjOTuoVNY1T-420" value="" style="html=1;curved=1;rounded=0;noEdgeStyle=1;orthogonal=1;sketch=1;" edge="1" target="twMHJTkQKGjOTuoVNY1T-421" source="twMHJTkQKGjOTuoVNY1T-361" parent="twMHJTkQKGjOTuoVNY1T-359">
          <mxGeometry relative="1" as="geometry">
            <mxPoint x="5640" y="2007.857142857143" as="sourcePoint" />
            <Array as="points">
              <mxPoint x="272" y="265.99999999999994" />
              <mxPoint x="298" y="40" />
            </Array>
          </mxGeometry>
        </mxCell>
        <mxCell id="twMHJTkQKGjOTuoVNY1T-424" style="edgeStyle=orthogonalEdgeStyle;curved=1;sketch=1;orthogonalLoop=1;jettySize=auto;html=1;noEdgeStyle=1;orthogonal=1;" edge="1" parent="twMHJTkQKGjOTuoVNY1T-359" source="twMHJTkQKGjOTuoVNY1T-421" target="twMHJTkQKGjOTuoVNY1T-385">
          <mxGeometry relative="1" as="geometry">
            <Array as="points">
              <mxPoint x="422" y="40" />
              <mxPoint x="435" y="164.0625" />
              <mxPoint x="555" y="164.0625" />
              <mxPoint x="555" y="164.0625" />
              <mxPoint x="675" y="164.0625" />
              <mxPoint x="675" y="164.0625" />
              <mxPoint x="775" y="164.0625" />
              <mxPoint x="775" y="164.0625" />
              <mxPoint x="891.1300000000001" y="164.0625" />
              <mxPoint x="904.1300000000001" y="357.23" />
            </Array>
          </mxGeometry>
        </mxCell>
        <mxCell id="twMHJTkQKGjOTuoVNY1T-421" value="Home" style="whiteSpace=wrap;html=1;rounded=0;shadow=0;glass=0;sketch=1;jiggle=0;disableMultiStroke=0;disableMultiStrokeFill=0;fillStyle=solid;strokeColor=#000000;fillColor=none;" vertex="1" parent="twMHJTkQKGjOTuoVNY1T-359">
          <mxGeometry x="310" y="20" width="100" height="40" as="geometry" />
        </mxCell>
        <mxCell id="twMHJTkQKGjOTuoVNY1T-422" value="" style="html=1;curved=1;rounded=0;noEdgeStyle=1;orthogonal=1;sketch=1;" edge="1" target="twMHJTkQKGjOTuoVNY1T-423" source="twMHJTkQKGjOTuoVNY1T-361" parent="twMHJTkQKGjOTuoVNY1T-359">
          <mxGeometry relative="1" as="geometry">
            <mxPoint x="5710" y="1775" as="sourcePoint" />
            <Array as="points">
              <mxPoint x="274" y="270.99999999999994" />
              <mxPoint x="298" y="110" />
            </Array>
          </mxGeometry>
        </mxCell>
        <mxCell id="twMHJTkQKGjOTuoVNY1T-423" value="Perkuliahan" style="whiteSpace=wrap;html=1;rounded=0;shadow=0;glass=0;sketch=1;jiggle=0;disableMultiStroke=0;disableMultiStrokeFill=0;fillStyle=solid;strokeColor=#000000;fillColor=none;" vertex="1" parent="twMHJTkQKGjOTuoVNY1T-359">
          <mxGeometry x="310" y="90" width="100" height="40" as="geometry" />
        </mxCell>
        <mxCell id="twMHJTkQKGjOTuoVNY1T-425" value="" style="html=1;curved=1;rounded=0;noEdgeStyle=1;orthogonal=1;sketch=1;" edge="1" target="twMHJTkQKGjOTuoVNY1T-426" source="twMHJTkQKGjOTuoVNY1T-361" parent="twMHJTkQKGjOTuoVNY1T-359">
          <mxGeometry relative="1" as="geometry">
            <mxPoint x="5589.999999999999" y="1757.5" as="sourcePoint" />
            <Array as="points">
              <mxPoint x="276" y="275.99999999999994" />
              <mxPoint x="298" y="180" />
            </Array>
          </mxGeometry>
        </mxCell>
        <mxCell id="twMHJTkQKGjOTuoVNY1T-440" style="edgeStyle=orthogonalEdgeStyle;curved=1;sketch=1;orthogonalLoop=1;jettySize=auto;html=1;entryX=0;entryY=0.5;entryDx=0;entryDy=0;noEdgeStyle=1;orthogonal=1;" edge="1" parent="twMHJTkQKGjOTuoVNY1T-359" source="twMHJTkQKGjOTuoVNY1T-426" target="twMHJTkQKGjOTuoVNY1T-439">
          <mxGeometry relative="1" as="geometry">
            <Array as="points">
              <mxPoint x="422" y="180" />
              <mxPoint x="446" y="257.5" />
            </Array>
          </mxGeometry>
        </mxCell>
        <mxCell id="twMHJTkQKGjOTuoVNY1T-426" value="Kemahasiswaan" style="whiteSpace=wrap;html=1;rounded=0;shadow=0;glass=0;sketch=1;jiggle=0;disableMultiStroke=0;disableMultiStrokeFill=0;fillStyle=solid;strokeColor=#000000;fillColor=none;" vertex="1" parent="twMHJTkQKGjOTuoVNY1T-359">
          <mxGeometry x="310" y="160" width="100" height="40" as="geometry" />
        </mxCell>
        <mxCell id="twMHJTkQKGjOTuoVNY1T-427" value="" style="html=1;curved=1;rounded=0;noEdgeStyle=1;orthogonal=1;sketch=1;" edge="1" target="twMHJTkQKGjOTuoVNY1T-428" source="twMHJTkQKGjOTuoVNY1T-361" parent="twMHJTkQKGjOTuoVNY1T-359">
          <mxGeometry relative="1" as="geometry">
            <mxPoint x="5360" y="1937.8571428571427" as="sourcePoint" />
            <Array as="points">
              <mxPoint x="278" y="280.99999999999994" />
              <mxPoint x="298" y="250" />
            </Array>
          </mxGeometry>
        </mxCell>
        <mxCell id="twMHJTkQKGjOTuoVNY1T-441" style="edgeStyle=orthogonalEdgeStyle;curved=1;sketch=1;orthogonalLoop=1;jettySize=auto;html=1;entryX=-0.026;entryY=0.461;entryDx=0;entryDy=0;noEdgeStyle=1;orthogonal=1;entryPerimeter=0;" edge="1" parent="twMHJTkQKGjOTuoVNY1T-359" source="twMHJTkQKGjOTuoVNY1T-428" target="twMHJTkQKGjOTuoVNY1T-439">
          <mxGeometry relative="1" as="geometry">
            <Array as="points">
              <mxPoint x="422" y="250" />
              <mxPoint x="444" y="271.66666666666663" />
            </Array>
          </mxGeometry>
        </mxCell>
        <mxCell id="twMHJTkQKGjOTuoVNY1T-428" value="Kelulusan" style="whiteSpace=wrap;html=1;rounded=0;shadow=0;glass=0;sketch=1;jiggle=0;disableMultiStroke=0;disableMultiStrokeFill=0;fillStyle=solid;strokeColor=#000000;fillColor=none;" vertex="1" parent="twMHJTkQKGjOTuoVNY1T-359">
          <mxGeometry x="315" y="230" width="90" height="40" as="geometry" />
        </mxCell>
        <mxCell id="twMHJTkQKGjOTuoVNY1T-429" value="" style="html=1;curved=1;rounded=0;noEdgeStyle=1;orthogonal=1;sketch=1;" edge="1" target="twMHJTkQKGjOTuoVNY1T-430" source="twMHJTkQKGjOTuoVNY1T-361" parent="twMHJTkQKGjOTuoVNY1T-359">
          <mxGeometry relative="1" as="geometry">
            <mxPoint x="5280" y="1932.8571428571427" as="sourcePoint" />
            <Array as="points">
              <mxPoint x="278" y="285.99999999999994" />
              <mxPoint x="298" y="320" />
            </Array>
          </mxGeometry>
        </mxCell>
        <mxCell id="twMHJTkQKGjOTuoVNY1T-442" style="edgeStyle=orthogonalEdgeStyle;curved=1;sketch=1;orthogonalLoop=1;jettySize=auto;html=1;entryX=0;entryY=0.5;entryDx=0;entryDy=0;noEdgeStyle=1;orthogonal=1;" edge="1" parent="twMHJTkQKGjOTuoVNY1T-359" source="twMHJTkQKGjOTuoVNY1T-430" target="twMHJTkQKGjOTuoVNY1T-439">
          <mxGeometry relative="1" as="geometry">
            <Array as="points">
              <mxPoint x="422" y="320" />
              <mxPoint x="444" y="285.8333333333333" />
            </Array>
          </mxGeometry>
        </mxCell>
        <mxCell id="twMHJTkQKGjOTuoVNY1T-430" value="LPS UAD" style="whiteSpace=wrap;html=1;rounded=0;shadow=0;glass=0;sketch=1;jiggle=0;disableMultiStroke=0;disableMultiStrokeFill=0;fillStyle=solid;strokeColor=#000000;fillColor=none;" vertex="1" parent="twMHJTkQKGjOTuoVNY1T-359">
          <mxGeometry x="320" y="300" width="80" height="40" as="geometry" />
        </mxCell>
        <mxCell id="twMHJTkQKGjOTuoVNY1T-431" value="" style="html=1;curved=1;rounded=0;noEdgeStyle=1;orthogonal=1;sketch=1;" edge="1" target="twMHJTkQKGjOTuoVNY1T-432" source="twMHJTkQKGjOTuoVNY1T-361" parent="twMHJTkQKGjOTuoVNY1T-359">
          <mxGeometry relative="1" as="geometry">
            <mxPoint x="5200" y="1927.8571428571427" as="sourcePoint" />
            <Array as="points">
              <mxPoint x="276" y="290.99999999999994" />
              <mxPoint x="298" y="390" />
            </Array>
          </mxGeometry>
        </mxCell>
        <mxCell id="twMHJTkQKGjOTuoVNY1T-443" style="edgeStyle=orthogonalEdgeStyle;curved=1;sketch=1;orthogonalLoop=1;jettySize=auto;html=1;entryX=0;entryY=0.5;entryDx=0;entryDy=0;noEdgeStyle=1;orthogonal=1;" edge="1" parent="twMHJTkQKGjOTuoVNY1T-359" source="twMHJTkQKGjOTuoVNY1T-432" target="twMHJTkQKGjOTuoVNY1T-439">
          <mxGeometry relative="1" as="geometry">
            <Array as="points">
              <mxPoint x="422" y="390" />
              <mxPoint x="446" y="300" />
            </Array>
          </mxGeometry>
        </mxCell>
        <mxCell id="twMHJTkQKGjOTuoVNY1T-432" value="WIFI" style="whiteSpace=wrap;html=1;rounded=0;shadow=0;glass=0;sketch=1;jiggle=0;disableMultiStroke=0;disableMultiStrokeFill=0;fillStyle=solid;strokeColor=#000000;fillColor=none;" vertex="1" parent="twMHJTkQKGjOTuoVNY1T-359">
          <mxGeometry x="325" y="370" width="70" height="40" as="geometry" />
        </mxCell>
        <mxCell id="twMHJTkQKGjOTuoVNY1T-433" value="" style="html=1;curved=1;rounded=0;noEdgeStyle=1;orthogonal=1;sketch=1;" edge="1" target="twMHJTkQKGjOTuoVNY1T-434" source="twMHJTkQKGjOTuoVNY1T-361" parent="twMHJTkQKGjOTuoVNY1T-359">
          <mxGeometry relative="1" as="geometry">
            <mxPoint x="5120" y="1922.8571428571427" as="sourcePoint" />
            <Array as="points">
              <mxPoint x="274" y="295.99999999999994" />
              <mxPoint x="298" y="460" />
            </Array>
          </mxGeometry>
        </mxCell>
        <mxCell id="twMHJTkQKGjOTuoVNY1T-444" style="edgeStyle=orthogonalEdgeStyle;curved=1;sketch=1;orthogonalLoop=1;jettySize=auto;html=1;noEdgeStyle=1;orthogonal=1;" edge="1" parent="twMHJTkQKGjOTuoVNY1T-359" source="twMHJTkQKGjOTuoVNY1T-434" target="twMHJTkQKGjOTuoVNY1T-439">
          <mxGeometry relative="1" as="geometry">
            <Array as="points">
              <mxPoint x="422" y="460" />
              <mxPoint x="448" y="314.1666666666667" />
            </Array>
          </mxGeometry>
        </mxCell>
        <mxCell id="twMHJTkQKGjOTuoVNY1T-434" value="Forum" style="whiteSpace=wrap;html=1;rounded=0;shadow=0;glass=0;sketch=1;jiggle=0;disableMultiStroke=0;disableMultiStrokeFill=0;fillStyle=solid;strokeColor=#000000;fillColor=none;" vertex="1" parent="twMHJTkQKGjOTuoVNY1T-359">
          <mxGeometry x="325" y="440" width="70" height="40" as="geometry" />
        </mxCell>
        <mxCell id="twMHJTkQKGjOTuoVNY1T-435" value="" style="html=1;curved=1;rounded=0;noEdgeStyle=1;orthogonal=1;sketch=1;" edge="1" target="twMHJTkQKGjOTuoVNY1T-436" source="twMHJTkQKGjOTuoVNY1T-361" parent="twMHJTkQKGjOTuoVNY1T-359">
          <mxGeometry relative="1" as="geometry">
            <mxPoint x="5040" y="1917.8571428571427" as="sourcePoint" />
            <Array as="points">
              <mxPoint x="272" y="300.99999999999994" />
              <mxPoint x="298" y="530" />
            </Array>
          </mxGeometry>
        </mxCell>
        <mxCell id="twMHJTkQKGjOTuoVNY1T-437" style="edgeStyle=orthogonalEdgeStyle;curved=1;sketch=1;orthogonalLoop=1;jettySize=auto;html=1;entryX=0.029;entryY=0.165;entryDx=0;entryDy=0;noEdgeStyle=1;orthogonal=1;entryPerimeter=0;" edge="1" parent="twMHJTkQKGjOTuoVNY1T-359" source="twMHJTkQKGjOTuoVNY1T-436" target="twMHJTkQKGjOTuoVNY1T-385">
          <mxGeometry relative="1" as="geometry">
            <Array as="points">
              <mxPoint x="422" y="530" />
              <mxPoint x="435" y="356.25" />
              <mxPoint x="555" y="356.25" />
              <mxPoint x="555" y="356.25" />
              <mxPoint x="675" y="356.25" />
              <mxPoint x="675" y="356.25" />
              <mxPoint x="775" y="356.25" />
              <mxPoint x="775" y="356.25" />
              <mxPoint x="891.1300000000001" y="356.25" />
              <mxPoint x="902.1300000000001" y="409.82000000000005" />
            </Array>
          </mxGeometry>
        </mxCell>
        <mxCell id="twMHJTkQKGjOTuoVNY1T-436" value="FAQ" style="whiteSpace=wrap;html=1;rounded=0;shadow=0;glass=0;sketch=1;jiggle=0;disableMultiStroke=0;disableMultiStrokeFill=0;fillStyle=solid;strokeColor=#000000;fillColor=none;" vertex="1" parent="twMHJTkQKGjOTuoVNY1T-359">
          <mxGeometry x="330" y="510" width="60" height="40" as="geometry" />
        </mxCell>
        <mxCell id="twMHJTkQKGjOTuoVNY1T-438" value="" style="html=1;curved=1;rounded=0;noEdgeStyle=1;orthogonal=1;sketch=1;" edge="1" target="twMHJTkQKGjOTuoVNY1T-439" source="twMHJTkQKGjOTuoVNY1T-423" parent="twMHJTkQKGjOTuoVNY1T-359">
          <mxGeometry relative="1" as="geometry">
            <mxPoint x="4870" y="1587.5" as="sourcePoint" />
            <Array as="points">
              <mxPoint x="422" y="110" />
              <mxPoint x="448" y="243.33333333333334" />
            </Array>
          </mxGeometry>
        </mxCell>
        <mxCell id="twMHJTkQKGjOTuoVNY1T-439" value="&lt;i&gt;&lt;b&gt;Diagram&lt;br&gt;Baru&lt;/b&gt;&lt;/i&gt;" style="whiteSpace=wrap;html=1;rounded=0;shadow=0;glass=0;sketch=1;jiggle=0;disableMultiStroke=0;disableMultiStrokeFill=0;fillStyle=auto;strokeColor=#9673a6;fillColor=#e1d5e7;" vertex="1" parent="twMHJTkQKGjOTuoVNY1T-359">
          <mxGeometry x="460" y="231.25" width="70" height="95" as="geometry" />
        </mxCell>
        <mxCell id="twMHJTkQKGjOTuoVNY1T-448" value="" style="group" vertex="1" connectable="0" parent="1">
          <mxGeometry x="320" y="10" width="120" height="30" as="geometry" />
        </mxCell>
        <mxCell id="twMHJTkQKGjOTuoVNY1T-446" value="" style="rounded=0;whiteSpace=wrap;html=1;fillColor=#e1d5e7;strokeColor=#9673a6;sketch=1;fillStyle=auto;" vertex="1" parent="twMHJTkQKGjOTuoVNY1T-448">
          <mxGeometry width="120" height="30" as="geometry" />
        </mxCell>
        <mxCell id="twMHJTkQKGjOTuoVNY1T-447" value="&lt;i&gt;&lt;b&gt;Bagan Baru&lt;/b&gt;&lt;/i&gt;" style="text;html=1;strokeColor=none;fillColor=none;align=center;verticalAlign=middle;whiteSpace=wrap;rounded=0;" vertex="1" parent="twMHJTkQKGjOTuoVNY1T-448">
          <mxGeometry x="15" width="90" height="30" as="geometry" />
        </mxCell>
        <mxCell id="twMHJTkQKGjOTuoVNY1T-530" value="Route Portal SIA UAD - Perkuliahan" style="swimlane;startSize=20;horizontal=1;childLayout=flowLayout;flowOrientation=north;resizable=0;interRankCellSpacing=50;containerType=tree;rounded=0;shadow=0;glass=0;sketch=1;jiggle=0;disableMultiStroke=0;disableMultiStrokeFill=0;fillStyle=auto;strokeColor=#000000;fillColor=none;" vertex="1" parent="1">
          <mxGeometry x="1530" y="-760" width="1051" height="290" as="geometry" />
        </mxCell>
        <mxCell id="twMHJTkQKGjOTuoVNY1T-531" value="Perkuliahan" style="whiteSpace=wrap;html=1;rounded=0;shadow=0;glass=0;sketch=1;jiggle=0;disableMultiStroke=0;disableMultiStrokeFill=0;fillStyle=auto;strokeColor=#000000;fillColor=none;" vertex="1" parent="twMHJTkQKGjOTuoVNY1T-530">
          <mxGeometry x="470" y="40" width="100" height="40" as="geometry" />
        </mxCell>
        <mxCell id="twMHJTkQKGjOTuoVNY1T-532" value="Info Pembayaran" style="whiteSpace=wrap;html=1;rounded=0;shadow=0;glass=0;sketch=1;jiggle=0;disableMultiStroke=0;disableMultiStrokeFill=0;fillStyle=auto;strokeColor=#000000;fillColor=none;" vertex="1" parent="twMHJTkQKGjOTuoVNY1T-530">
          <mxGeometry x="20" y="135" width="80" height="40" as="geometry" />
        </mxCell>
        <mxCell id="twMHJTkQKGjOTuoVNY1T-533" value="" style="html=1;curved=1;sketch=1;noEdgeStyle=1;orthogonal=1;" edge="1" parent="twMHJTkQKGjOTuoVNY1T-530" source="twMHJTkQKGjOTuoVNY1T-531" target="twMHJTkQKGjOTuoVNY1T-532">
          <mxGeometry relative="1" as="geometry">
            <Array as="points">
              <mxPoint x="478.75" y="92" />
              <mxPoint x="60" y="118" />
            </Array>
          </mxGeometry>
        </mxCell>
        <mxCell id="twMHJTkQKGjOTuoVNY1T-534" value="Matkul Ditawarkan" style="whiteSpace=wrap;html=1;rounded=0;shadow=0;glass=0;sketch=1;jiggle=0;disableMultiStroke=0;disableMultiStrokeFill=0;fillStyle=auto;strokeColor=#000000;fillColor=none;" vertex="1" parent="twMHJTkQKGjOTuoVNY1T-530">
          <mxGeometry x="130" y="135" width="70" height="40" as="geometry" />
        </mxCell>
        <mxCell id="twMHJTkQKGjOTuoVNY1T-535" value="" style="html=1;curved=1;sketch=1;noEdgeStyle=1;orthogonal=1;" edge="1" parent="twMHJTkQKGjOTuoVNY1T-530" source="twMHJTkQKGjOTuoVNY1T-531" target="twMHJTkQKGjOTuoVNY1T-534">
          <mxGeometry relative="1" as="geometry">
            <Array as="points">
              <mxPoint x="486.25" y="94" />
              <mxPoint x="165" y="118" />
            </Array>
          </mxGeometry>
        </mxCell>
        <mxCell id="twMHJTkQKGjOTuoVNY1T-536" value="End" style="whiteSpace=wrap;html=1;rounded=0;shadow=0;glass=0;sketch=1;jiggle=0;disableMultiStroke=0;disableMultiStrokeFill=0;fillStyle=auto;strokeColor=#000000;fillColor=none;" vertex="1" parent="twMHJTkQKGjOTuoVNY1T-530">
          <mxGeometry x="62.5" y="230" width="100" height="40" as="geometry" />
        </mxCell>
        <mxCell id="twMHJTkQKGjOTuoVNY1T-537" value="" style="html=1;curved=1;sketch=1;noEdgeStyle=1;orthogonal=1;" edge="1" parent="twMHJTkQKGjOTuoVNY1T-530" source="twMHJTkQKGjOTuoVNY1T-532" target="twMHJTkQKGjOTuoVNY1T-536">
          <mxGeometry relative="1" as="geometry">
            <Array as="points">
              <mxPoint x="60" y="192" />
              <mxPoint x="90" y="218" />
            </Array>
          </mxGeometry>
        </mxCell>
        <mxCell id="twMHJTkQKGjOTuoVNY1T-538" value="" style="html=1;curved=1;sketch=1;noEdgeStyle=1;orthogonal=1;" edge="1" parent="twMHJTkQKGjOTuoVNY1T-530" source="twMHJTkQKGjOTuoVNY1T-534" target="twMHJTkQKGjOTuoVNY1T-536">
          <mxGeometry relative="1" as="geometry">
            <Array as="points">
              <mxPoint x="165" y="192" />
              <mxPoint x="135" y="218" />
            </Array>
          </mxGeometry>
        </mxCell>
        <mxCell id="twMHJTkQKGjOTuoVNY1T-562" value="" style="html=1;curved=1;sketch=1;noEdgeStyle=1;orthogonal=1;" edge="1" target="twMHJTkQKGjOTuoVNY1T-563" source="twMHJTkQKGjOTuoVNY1T-531" parent="twMHJTkQKGjOTuoVNY1T-530">
          <mxGeometry relative="1" as="geometry">
            <mxPoint x="2375" y="1340" as="sourcePoint" />
            <Array as="points">
              <mxPoint x="493.75" y="96" />
              <mxPoint x="250" y="118" />
            </Array>
          </mxGeometry>
        </mxCell>
        <mxCell id="twMHJTkQKGjOTuoVNY1T-563" value="KRS" style="whiteSpace=wrap;html=1;rounded=0;shadow=0;glass=0;sketch=1;jiggle=0;disableMultiStroke=0;disableMultiStrokeFill=0;fillStyle=auto;strokeColor=#000000;fillColor=none;" vertex="1" parent="twMHJTkQKGjOTuoVNY1T-530">
          <mxGeometry x="230" y="135" width="40" height="40" as="geometry" />
        </mxCell>
        <mxCell id="twMHJTkQKGjOTuoVNY1T-564" value="" style="html=1;curved=1;sketch=1;noEdgeStyle=1;orthogonal=1;" edge="1" target="twMHJTkQKGjOTuoVNY1T-565" source="twMHJTkQKGjOTuoVNY1T-531" parent="twMHJTkQKGjOTuoVNY1T-530">
          <mxGeometry relative="1" as="geometry">
            <mxPoint x="2375" y="1220" as="sourcePoint" />
            <Array as="points">
              <mxPoint x="501.25" y="98" />
              <mxPoint x="320" y="118" />
            </Array>
          </mxGeometry>
        </mxCell>
        <mxCell id="twMHJTkQKGjOTuoVNY1T-565" value="KRS Ujian Ulang" style="whiteSpace=wrap;html=1;rounded=0;shadow=0;glass=0;sketch=1;jiggle=0;disableMultiStroke=0;disableMultiStrokeFill=0;fillStyle=auto;strokeColor=#000000;fillColor=none;" vertex="1" parent="twMHJTkQKGjOTuoVNY1T-530">
          <mxGeometry x="300" y="130" width="40" height="50" as="geometry" />
        </mxCell>
        <mxCell id="twMHJTkQKGjOTuoVNY1T-566" value="" style="html=1;curved=1;sketch=1;noEdgeStyle=1;orthogonal=1;" edge="1" target="twMHJTkQKGjOTuoVNY1T-567" source="twMHJTkQKGjOTuoVNY1T-531" parent="twMHJTkQKGjOTuoVNY1T-530">
          <mxGeometry relative="1" as="geometry">
            <mxPoint x="2361.2499999999995" y="1100" as="sourcePoint" />
            <Array as="points">
              <mxPoint x="508.75" y="100" />
              <mxPoint x="395" y="118" />
            </Array>
          </mxGeometry>
        </mxCell>
        <mxCell id="twMHJTkQKGjOTuoVNY1T-567" value="Jadwal Kuliah" style="whiteSpace=wrap;html=1;rounded=0;shadow=0;glass=0;sketch=1;jiggle=0;disableMultiStroke=0;disableMultiStrokeFill=0;fillStyle=auto;strokeColor=#000000;fillColor=none;" vertex="1" parent="twMHJTkQKGjOTuoVNY1T-530">
          <mxGeometry x="370" y="135" width="50" height="40" as="geometry" />
        </mxCell>
        <mxCell id="twMHJTkQKGjOTuoVNY1T-568" value="" style="html=1;curved=1;sketch=1;noEdgeStyle=1;orthogonal=1;" edge="1" target="twMHJTkQKGjOTuoVNY1T-569" source="twMHJTkQKGjOTuoVNY1T-531" parent="twMHJTkQKGjOTuoVNY1T-530">
          <mxGeometry relative="1" as="geometry">
            <mxPoint x="2286.0000000000005" y="860" as="sourcePoint" />
            <Array as="points">
              <mxPoint x="516.25" y="102" />
              <mxPoint x="480" y="118" />
            </Array>
          </mxGeometry>
        </mxCell>
        <mxCell id="twMHJTkQKGjOTuoVNY1T-569" value="Presensi" style="whiteSpace=wrap;html=1;rounded=0;shadow=0;glass=0;sketch=1;jiggle=0;disableMultiStroke=0;disableMultiStrokeFill=0;fillStyle=auto;strokeColor=#000000;fillColor=none;" vertex="1" parent="twMHJTkQKGjOTuoVNY1T-530">
          <mxGeometry x="450" y="135" width="60" height="40" as="geometry" />
        </mxCell>
        <mxCell id="twMHJTkQKGjOTuoVNY1T-570" value="" style="html=1;curved=1;sketch=1;noEdgeStyle=1;orthogonal=1;" edge="1" target="twMHJTkQKGjOTuoVNY1T-571" source="twMHJTkQKGjOTuoVNY1T-531" parent="twMHJTkQKGjOTuoVNY1T-530">
          <mxGeometry relative="1" as="geometry">
            <mxPoint x="2262.4999999999995" y="740" as="sourcePoint" />
            <Array as="points">
              <mxPoint x="523.75" y="102" />
              <mxPoint x="560" y="118" />
            </Array>
          </mxGeometry>
        </mxCell>
        <mxCell id="twMHJTkQKGjOTuoVNY1T-571" value="KHS" style="whiteSpace=wrap;html=1;rounded=0;shadow=0;glass=0;sketch=1;jiggle=0;disableMultiStroke=0;disableMultiStrokeFill=0;fillStyle=auto;strokeColor=#000000;fillColor=none;" vertex="1" parent="twMHJTkQKGjOTuoVNY1T-530">
          <mxGeometry x="540" y="135" width="40" height="40" as="geometry" />
        </mxCell>
        <mxCell id="twMHJTkQKGjOTuoVNY1T-572" value="" style="html=1;curved=1;sketch=1;noEdgeStyle=1;orthogonal=1;" edge="1" target="twMHJTkQKGjOTuoVNY1T-573" source="twMHJTkQKGjOTuoVNY1T-531" parent="twMHJTkQKGjOTuoVNY1T-530">
          <mxGeometry relative="1" as="geometry">
            <mxPoint x="2238.5714285714284" y="620" as="sourcePoint" />
            <Array as="points">
              <mxPoint x="531.25" y="100" />
              <mxPoint x="640" y="118" />
            </Array>
          </mxGeometry>
        </mxCell>
        <mxCell id="twMHJTkQKGjOTuoVNY1T-573" value="Transkip" style="whiteSpace=wrap;html=1;rounded=0;shadow=0;glass=0;sketch=1;jiggle=0;disableMultiStroke=0;disableMultiStrokeFill=0;fillStyle=auto;strokeColor=#000000;fillColor=none;" vertex="1" parent="twMHJTkQKGjOTuoVNY1T-530">
          <mxGeometry x="610" y="135" width="60" height="40" as="geometry" />
        </mxCell>
        <mxCell id="twMHJTkQKGjOTuoVNY1T-574" value="" style="html=1;curved=1;sketch=1;noEdgeStyle=1;orthogonal=1;" edge="1" target="twMHJTkQKGjOTuoVNY1T-575" source="twMHJTkQKGjOTuoVNY1T-531" parent="twMHJTkQKGjOTuoVNY1T-530">
          <mxGeometry relative="1" as="geometry">
            <mxPoint x="2216.8749999999995" y="500" as="sourcePoint" />
            <Array as="points">
              <mxPoint x="538.75" y="98" />
              <mxPoint x="730" y="118" />
            </Array>
          </mxGeometry>
        </mxCell>
        <mxCell id="twMHJTkQKGjOTuoVNY1T-575" value="Praktikum" style="whiteSpace=wrap;html=1;rounded=0;shadow=0;glass=0;sketch=1;jiggle=0;disableMultiStroke=0;disableMultiStrokeFill=0;fillStyle=auto;strokeColor=#000000;fillColor=none;" vertex="1" parent="twMHJTkQKGjOTuoVNY1T-530">
          <mxGeometry x="700" y="135" width="60" height="40" as="geometry" />
        </mxCell>
        <mxCell id="twMHJTkQKGjOTuoVNY1T-576" value="" style="html=1;curved=1;sketch=1;noEdgeStyle=1;orthogonal=1;" edge="1" target="twMHJTkQKGjOTuoVNY1T-577" source="twMHJTkQKGjOTuoVNY1T-531" parent="twMHJTkQKGjOTuoVNY1T-530">
          <mxGeometry relative="1" as="geometry">
            <mxPoint x="2214.9999999999995" y="420" as="sourcePoint" />
            <Array as="points">
              <mxPoint x="546.25" y="96" />
              <mxPoint x="820" y="118" />
            </Array>
          </mxGeometry>
        </mxCell>
        <mxCell id="twMHJTkQKGjOTuoVNY1T-577" value="KHS Praktikum" style="whiteSpace=wrap;html=1;rounded=0;shadow=0;glass=0;sketch=1;jiggle=0;disableMultiStroke=0;disableMultiStrokeFill=0;fillStyle=auto;strokeColor=#000000;fillColor=none;" vertex="1" parent="twMHJTkQKGjOTuoVNY1T-530">
          <mxGeometry x="790" y="135" width="60" height="40" as="geometry" />
        </mxCell>
        <mxCell id="twMHJTkQKGjOTuoVNY1T-578" value="" style="html=1;curved=1;sketch=1;noEdgeStyle=1;orthogonal=1;" edge="1" target="twMHJTkQKGjOTuoVNY1T-579" source="twMHJTkQKGjOTuoVNY1T-531" parent="twMHJTkQKGjOTuoVNY1T-530">
          <mxGeometry relative="1" as="geometry">
            <mxPoint x="2218" y="340" as="sourcePoint" />
            <Array as="points">
              <mxPoint x="553.75" y="94" />
              <mxPoint x="910.5" y="118" />
            </Array>
          </mxGeometry>
        </mxCell>
        <mxCell id="twMHJTkQKGjOTuoVNY1T-579" value="Surat Perjalanan&amp;nbsp;" style="whiteSpace=wrap;html=1;rounded=0;shadow=0;glass=0;sketch=1;jiggle=0;disableMultiStroke=0;disableMultiStrokeFill=0;fillStyle=auto;strokeColor=#000000;fillColor=none;" vertex="1" parent="twMHJTkQKGjOTuoVNY1T-530">
          <mxGeometry x="880.5" y="135" width="60" height="40" as="geometry" />
        </mxCell>
        <mxCell id="twMHJTkQKGjOTuoVNY1T-580" value="" style="html=1;curved=1;sketch=1;noEdgeStyle=1;orthogonal=1;" edge="1" target="twMHJTkQKGjOTuoVNY1T-581" source="twMHJTkQKGjOTuoVNY1T-531" parent="twMHJTkQKGjOTuoVNY1T-530">
          <mxGeometry relative="1" as="geometry">
            <mxPoint x="2220.9090909090914" y="260" as="sourcePoint" />
            <Array as="points">
              <mxPoint x="561.25" y="92" />
              <mxPoint x="1001" y="118" />
            </Array>
          </mxGeometry>
        </mxCell>
        <mxCell id="twMHJTkQKGjOTuoVNY1T-581" value="UTS &amp;amp; UAS" style="whiteSpace=wrap;html=1;rounded=0;shadow=0;glass=0;sketch=1;jiggle=0;disableMultiStroke=0;disableMultiStrokeFill=0;fillStyle=auto;strokeColor=#000000;fillColor=none;" vertex="1" parent="twMHJTkQKGjOTuoVNY1T-530">
          <mxGeometry x="971" y="135" width="60" height="40" as="geometry" />
        </mxCell>
        <mxCell id="twMHJTkQKGjOTuoVNY1T-540" value="Route Portal SIA UAD - Perkuliahan" style="swimlane;startSize=20;horizontal=1;childLayout=flowLayout;flowOrientation=north;resizable=0;interRankCellSpacing=50;containerType=tree;rounded=0;shadow=0;glass=0;sketch=1;jiggle=0;disableMultiStroke=0;disableMultiStrokeFill=0;fillStyle=auto;strokeColor=#000000;fillColor=none;" vertex="1" parent="1">
          <mxGeometry x="-280" y="1180" width="270" height="280" as="geometry" />
        </mxCell>
        <mxCell id="twMHJTkQKGjOTuoVNY1T-541" value="Perkuliahaan" style="whiteSpace=wrap;html=1;rounded=0;shadow=0;glass=0;sketch=1;jiggle=0;disableMultiStroke=0;disableMultiStrokeFill=0;fillStyle=auto;strokeColor=#000000;fillColor=none;" vertex="1" parent="twMHJTkQKGjOTuoVNY1T-540">
          <mxGeometry x="85" y="40" width="100" height="40" as="geometry" />
        </mxCell>
        <mxCell id="twMHJTkQKGjOTuoVNY1T-542" value="Task" style="whiteSpace=wrap;html=1;rounded=0;shadow=0;glass=0;sketch=1;jiggle=0;disableMultiStroke=0;disableMultiStrokeFill=0;fillStyle=auto;strokeColor=#000000;fillColor=none;" vertex="1" parent="twMHJTkQKGjOTuoVNY1T-540">
          <mxGeometry x="20" y="130" width="100" height="40" as="geometry" />
        </mxCell>
        <mxCell id="twMHJTkQKGjOTuoVNY1T-543" value="" style="html=1;curved=1;sketch=1;noEdgeStyle=1;orthogonal=1;" edge="1" parent="twMHJTkQKGjOTuoVNY1T-540" source="twMHJTkQKGjOTuoVNY1T-541" target="twMHJTkQKGjOTuoVNY1T-542">
          <mxGeometry relative="1" as="geometry">
            <Array as="points">
              <mxPoint x="112.5" y="92" />
              <mxPoint x="70" y="118" />
            </Array>
          </mxGeometry>
        </mxCell>
        <mxCell id="twMHJTkQKGjOTuoVNY1T-544" value="Task" style="whiteSpace=wrap;html=1;rounded=0;shadow=0;glass=0;sketch=1;jiggle=0;disableMultiStroke=0;disableMultiStrokeFill=0;fillStyle=auto;strokeColor=#000000;fillColor=none;" vertex="1" parent="twMHJTkQKGjOTuoVNY1T-540">
          <mxGeometry x="150" y="130" width="100" height="40" as="geometry" />
        </mxCell>
        <mxCell id="twMHJTkQKGjOTuoVNY1T-545" value="" style="html=1;curved=1;sketch=1;noEdgeStyle=1;orthogonal=1;" edge="1" parent="twMHJTkQKGjOTuoVNY1T-540" source="twMHJTkQKGjOTuoVNY1T-541" target="twMHJTkQKGjOTuoVNY1T-544">
          <mxGeometry relative="1" as="geometry">
            <Array as="points">
              <mxPoint x="157.5" y="92" />
              <mxPoint x="200" y="118" />
            </Array>
          </mxGeometry>
        </mxCell>
        <mxCell id="twMHJTkQKGjOTuoVNY1T-546" value="End" style="whiteSpace=wrap;html=1;rounded=0;shadow=0;glass=0;sketch=1;jiggle=0;disableMultiStroke=0;disableMultiStrokeFill=0;fillStyle=auto;strokeColor=#000000;fillColor=none;" vertex="1" parent="twMHJTkQKGjOTuoVNY1T-540">
          <mxGeometry x="85" y="220" width="100" height="40" as="geometry" />
        </mxCell>
        <mxCell id="twMHJTkQKGjOTuoVNY1T-547" value="" style="html=1;curved=1;sketch=1;noEdgeStyle=1;orthogonal=1;" edge="1" parent="twMHJTkQKGjOTuoVNY1T-540" source="twMHJTkQKGjOTuoVNY1T-542" target="twMHJTkQKGjOTuoVNY1T-546">
          <mxGeometry relative="1" as="geometry">
            <Array as="points">
              <mxPoint x="70" y="182" />
              <mxPoint x="112.5" y="208" />
            </Array>
          </mxGeometry>
        </mxCell>
        <mxCell id="twMHJTkQKGjOTuoVNY1T-548" value="" style="html=1;curved=1;sketch=1;noEdgeStyle=1;orthogonal=1;" edge="1" parent="twMHJTkQKGjOTuoVNY1T-540" source="twMHJTkQKGjOTuoVNY1T-544" target="twMHJTkQKGjOTuoVNY1T-546">
          <mxGeometry relative="1" as="geometry">
            <Array as="points">
              <mxPoint x="200" y="182" />
              <mxPoint x="157.5" y="208" />
            </Array>
          </mxGeometry>
        </mxCell>
        <mxCell id="twMHJTkQKGjOTuoVNY1T-611" value="Route Portal SIA UAD - Perkuliahan" style="swimlane;html=1;startSize=20;horizontal=0;childLayout=flowLayout;flowOrientation=west;resizable=0;interRankCellSpacing=50;containerType=tree;rounded=0;shadow=0;glass=0;sketch=1;jiggle=0;disableMultiStroke=0;disableMultiStrokeFill=0;fillStyle=auto;strokeColor=#000000;fillColor=none;" vertex="1" parent="1">
          <mxGeometry x="1640" y="60" width="290" height="860" as="geometry" />
        </mxCell>
        <mxCell id="twMHJTkQKGjOTuoVNY1T-636" style="edgeStyle=orthogonalEdgeStyle;curved=1;sketch=1;orthogonalLoop=1;jettySize=auto;html=1;entryX=0;entryY=0.5;entryDx=0;entryDy=0;noEdgeStyle=1;orthogonal=1;" edge="1" parent="twMHJTkQKGjOTuoVNY1T-611" source="twMHJTkQKGjOTuoVNY1T-612" target="twMHJTkQKGjOTuoVNY1T-620">
          <mxGeometry relative="1" as="geometry">
            <Array as="points">
              <mxPoint x="152" y="416.6666666666667" />
              <mxPoint x="178" y="40" />
            </Array>
          </mxGeometry>
        </mxCell>
        <mxCell id="twMHJTkQKGjOTuoVNY1T-639" style="edgeStyle=orthogonalEdgeStyle;curved=1;sketch=1;orthogonalLoop=1;jettySize=auto;html=1;entryX=0;entryY=0.5;entryDx=0;entryDy=0;noEdgeStyle=1;orthogonal=1;" edge="1" parent="twMHJTkQKGjOTuoVNY1T-611" source="twMHJTkQKGjOTuoVNY1T-612" target="twMHJTkQKGjOTuoVNY1T-621">
          <mxGeometry relative="1" as="geometry">
            <Array as="points">
              <mxPoint x="154" y="420" />
              <mxPoint x="178" y="110" />
            </Array>
          </mxGeometry>
        </mxCell>
        <mxCell id="twMHJTkQKGjOTuoVNY1T-640" style="edgeStyle=orthogonalEdgeStyle;curved=1;sketch=1;orthogonalLoop=1;jettySize=auto;html=1;entryX=0;entryY=0.5;entryDx=0;entryDy=0;noEdgeStyle=1;orthogonal=1;" edge="1" parent="twMHJTkQKGjOTuoVNY1T-611" source="twMHJTkQKGjOTuoVNY1T-612" target="twMHJTkQKGjOTuoVNY1T-622">
          <mxGeometry relative="1" as="geometry">
            <Array as="points">
              <mxPoint x="156" y="423.3333333333333" />
              <mxPoint x="178" y="180" />
            </Array>
          </mxGeometry>
        </mxCell>
        <mxCell id="twMHJTkQKGjOTuoVNY1T-641" style="edgeStyle=orthogonalEdgeStyle;curved=1;sketch=1;orthogonalLoop=1;jettySize=auto;html=1;entryX=0;entryY=0.5;entryDx=0;entryDy=0;noEdgeStyle=1;orthogonal=1;" edge="1" parent="twMHJTkQKGjOTuoVNY1T-611" source="twMHJTkQKGjOTuoVNY1T-612" target="twMHJTkQKGjOTuoVNY1T-623">
          <mxGeometry relative="1" as="geometry">
            <Array as="points">
              <mxPoint x="158" y="426.66666666666663" />
              <mxPoint x="178" y="255" />
            </Array>
          </mxGeometry>
        </mxCell>
        <mxCell id="twMHJTkQKGjOTuoVNY1T-642" style="edgeStyle=orthogonalEdgeStyle;curved=1;sketch=1;orthogonalLoop=1;jettySize=auto;html=1;entryX=0;entryY=0.5;entryDx=0;entryDy=0;noEdgeStyle=1;orthogonal=1;" edge="1" parent="twMHJTkQKGjOTuoVNY1T-611" source="twMHJTkQKGjOTuoVNY1T-612" target="twMHJTkQKGjOTuoVNY1T-624">
          <mxGeometry relative="1" as="geometry">
            <Array as="points">
              <mxPoint x="160" y="429.99999999999994" />
              <mxPoint x="178" y="330" />
            </Array>
          </mxGeometry>
        </mxCell>
        <mxCell id="twMHJTkQKGjOTuoVNY1T-643" style="edgeStyle=orthogonalEdgeStyle;curved=1;sketch=1;orthogonalLoop=1;jettySize=auto;html=1;entryX=0;entryY=0.5;entryDx=0;entryDy=0;noEdgeStyle=1;orthogonal=1;" edge="1" parent="twMHJTkQKGjOTuoVNY1T-611" source="twMHJTkQKGjOTuoVNY1T-612" target="twMHJTkQKGjOTuoVNY1T-625">
          <mxGeometry relative="1" as="geometry">
            <Array as="points">
              <mxPoint x="162" y="433.33333333333326" />
              <mxPoint x="178" y="400" />
            </Array>
          </mxGeometry>
        </mxCell>
        <mxCell id="twMHJTkQKGjOTuoVNY1T-644" style="edgeStyle=orthogonalEdgeStyle;curved=1;sketch=1;orthogonalLoop=1;jettySize=auto;html=1;entryX=0;entryY=0.5;entryDx=0;entryDy=0;noEdgeStyle=1;orthogonal=1;" edge="1" parent="twMHJTkQKGjOTuoVNY1T-611" source="twMHJTkQKGjOTuoVNY1T-612" target="twMHJTkQKGjOTuoVNY1T-626">
          <mxGeometry relative="1" as="geometry">
            <Array as="points">
              <mxPoint x="162" y="436.6666666666666" />
              <mxPoint x="178" y="470" />
            </Array>
          </mxGeometry>
        </mxCell>
        <mxCell id="twMHJTkQKGjOTuoVNY1T-645" style="edgeStyle=orthogonalEdgeStyle;curved=1;sketch=1;orthogonalLoop=1;jettySize=auto;html=1;noEdgeStyle=1;orthogonal=1;" edge="1" parent="twMHJTkQKGjOTuoVNY1T-611" source="twMHJTkQKGjOTuoVNY1T-612" target="twMHJTkQKGjOTuoVNY1T-627">
          <mxGeometry relative="1" as="geometry">
            <Array as="points">
              <mxPoint x="160" y="439.9999999999999" />
              <mxPoint x="178" y="540" />
            </Array>
          </mxGeometry>
        </mxCell>
        <mxCell id="twMHJTkQKGjOTuoVNY1T-646" style="edgeStyle=orthogonalEdgeStyle;curved=1;sketch=1;orthogonalLoop=1;jettySize=auto;html=1;entryX=0;entryY=0.5;entryDx=0;entryDy=0;noEdgeStyle=1;orthogonal=1;" edge="1" parent="twMHJTkQKGjOTuoVNY1T-611" source="twMHJTkQKGjOTuoVNY1T-612" target="twMHJTkQKGjOTuoVNY1T-628">
          <mxGeometry relative="1" as="geometry">
            <Array as="points">
              <mxPoint x="158" y="443.3333333333332" />
              <mxPoint x="178" y="610" />
            </Array>
          </mxGeometry>
        </mxCell>
        <mxCell id="twMHJTkQKGjOTuoVNY1T-647" style="edgeStyle=orthogonalEdgeStyle;curved=1;sketch=1;orthogonalLoop=1;jettySize=auto;html=1;entryX=0;entryY=0.5;entryDx=0;entryDy=0;noEdgeStyle=1;orthogonal=1;" edge="1" parent="twMHJTkQKGjOTuoVNY1T-611" source="twMHJTkQKGjOTuoVNY1T-612" target="twMHJTkQKGjOTuoVNY1T-629">
          <mxGeometry relative="1" as="geometry">
            <Array as="points">
              <mxPoint x="156" y="446.6666666666665" />
              <mxPoint x="178" y="680" />
            </Array>
          </mxGeometry>
        </mxCell>
        <mxCell id="twMHJTkQKGjOTuoVNY1T-648" style="edgeStyle=orthogonalEdgeStyle;curved=1;sketch=1;orthogonalLoop=1;jettySize=auto;html=1;entryX=0;entryY=0.5;entryDx=0;entryDy=0;noEdgeStyle=1;orthogonal=1;" edge="1" parent="twMHJTkQKGjOTuoVNY1T-611" source="twMHJTkQKGjOTuoVNY1T-612" target="twMHJTkQKGjOTuoVNY1T-630">
          <mxGeometry relative="1" as="geometry">
            <Array as="points">
              <mxPoint x="154" y="449.99999999999983" />
              <mxPoint x="178" y="750" />
            </Array>
          </mxGeometry>
        </mxCell>
        <mxCell id="twMHJTkQKGjOTuoVNY1T-649" style="edgeStyle=orthogonalEdgeStyle;curved=1;sketch=1;orthogonalLoop=1;jettySize=auto;html=1;entryX=0;entryY=0.5;entryDx=0;entryDy=0;noEdgeStyle=1;orthogonal=1;" edge="1" parent="twMHJTkQKGjOTuoVNY1T-611" source="twMHJTkQKGjOTuoVNY1T-612" target="twMHJTkQKGjOTuoVNY1T-631">
          <mxGeometry relative="1" as="geometry">
            <Array as="points">
              <mxPoint x="152" y="453.33333333333314" />
              <mxPoint x="178" y="820" />
            </Array>
          </mxGeometry>
        </mxCell>
        <mxCell id="twMHJTkQKGjOTuoVNY1T-612" value="Perkuliahan" style="whiteSpace=wrap;html=1;rounded=0;shadow=0;glass=0;sketch=1;jiggle=0;disableMultiStroke=0;disableMultiStrokeFill=0;fillStyle=auto;strokeColor=#000000;fillColor=none;" vertex="1" parent="twMHJTkQKGjOTuoVNY1T-611">
          <mxGeometry x="40" y="415" width="100" height="40" as="geometry" />
        </mxCell>
        <mxCell id="twMHJTkQKGjOTuoVNY1T-620" value="Info Pembayaran" style="whiteSpace=wrap;html=1;rounded=0;shadow=0;glass=0;sketch=1;jiggle=0;disableMultiStroke=0;disableMultiStrokeFill=0;fillStyle=auto;strokeColor=#000000;fillColor=none;" vertex="1" parent="twMHJTkQKGjOTuoVNY1T-611">
          <mxGeometry x="190" y="20" width="80" height="40" as="geometry" />
        </mxCell>
        <mxCell id="twMHJTkQKGjOTuoVNY1T-621" value="Matkul Ditawarkan" style="whiteSpace=wrap;html=1;rounded=0;shadow=0;glass=0;sketch=1;jiggle=0;disableMultiStroke=0;disableMultiStrokeFill=0;fillStyle=auto;strokeColor=#000000;fillColor=none;" vertex="1" parent="twMHJTkQKGjOTuoVNY1T-611">
          <mxGeometry x="195" y="90" width="70" height="40" as="geometry" />
        </mxCell>
        <mxCell id="twMHJTkQKGjOTuoVNY1T-622" value="KRS" style="whiteSpace=wrap;html=1;rounded=0;shadow=0;glass=0;sketch=1;jiggle=0;disableMultiStroke=0;disableMultiStrokeFill=0;fillStyle=auto;strokeColor=#000000;fillColor=none;" vertex="1" parent="twMHJTkQKGjOTuoVNY1T-611">
          <mxGeometry x="210" y="160" width="40" height="40" as="geometry" />
        </mxCell>
        <mxCell id="twMHJTkQKGjOTuoVNY1T-623" value="KRS Ujian Ulang" style="whiteSpace=wrap;html=1;rounded=0;shadow=0;glass=0;sketch=1;jiggle=0;disableMultiStroke=0;disableMultiStrokeFill=0;fillStyle=auto;strokeColor=#000000;fillColor=none;" vertex="1" parent="twMHJTkQKGjOTuoVNY1T-611">
          <mxGeometry x="210" y="230" width="40" height="50" as="geometry" />
        </mxCell>
        <mxCell id="twMHJTkQKGjOTuoVNY1T-624" value="Jadwal Kuliah" style="whiteSpace=wrap;html=1;rounded=0;shadow=0;glass=0;sketch=1;jiggle=0;disableMultiStroke=0;disableMultiStrokeFill=0;fillStyle=auto;strokeColor=#000000;fillColor=none;" vertex="1" parent="twMHJTkQKGjOTuoVNY1T-611">
          <mxGeometry x="205" y="310" width="50" height="40" as="geometry" />
        </mxCell>
        <mxCell id="twMHJTkQKGjOTuoVNY1T-625" value="Presensi" style="whiteSpace=wrap;html=1;rounded=0;shadow=0;glass=0;sketch=1;jiggle=0;disableMultiStroke=0;disableMultiStrokeFill=0;fillStyle=auto;strokeColor=#000000;fillColor=none;" vertex="1" parent="twMHJTkQKGjOTuoVNY1T-611">
          <mxGeometry x="200" y="380" width="60" height="40" as="geometry" />
        </mxCell>
        <mxCell id="twMHJTkQKGjOTuoVNY1T-626" value="KHS" style="whiteSpace=wrap;html=1;rounded=0;shadow=0;glass=0;sketch=1;jiggle=0;disableMultiStroke=0;disableMultiStrokeFill=0;fillStyle=auto;strokeColor=#000000;fillColor=none;" vertex="1" parent="twMHJTkQKGjOTuoVNY1T-611">
          <mxGeometry x="210" y="450" width="40" height="40" as="geometry" />
        </mxCell>
        <mxCell id="twMHJTkQKGjOTuoVNY1T-627" value="Transkip" style="whiteSpace=wrap;html=1;rounded=0;shadow=0;glass=0;sketch=1;jiggle=0;disableMultiStroke=0;disableMultiStrokeFill=0;fillStyle=auto;strokeColor=#000000;fillColor=none;" vertex="1" parent="twMHJTkQKGjOTuoVNY1T-611">
          <mxGeometry x="200" y="520" width="60" height="40" as="geometry" />
        </mxCell>
        <mxCell id="twMHJTkQKGjOTuoVNY1T-628" value="Praktikum" style="whiteSpace=wrap;html=1;rounded=0;shadow=0;glass=0;sketch=1;jiggle=0;disableMultiStroke=0;disableMultiStrokeFill=0;fillStyle=auto;strokeColor=#000000;fillColor=none;" vertex="1" parent="twMHJTkQKGjOTuoVNY1T-611">
          <mxGeometry x="200" y="590" width="60" height="40" as="geometry" />
        </mxCell>
        <mxCell id="twMHJTkQKGjOTuoVNY1T-629" value="KHS Praktikum" style="whiteSpace=wrap;html=1;rounded=0;shadow=0;glass=0;sketch=1;jiggle=0;disableMultiStroke=0;disableMultiStrokeFill=0;fillStyle=auto;strokeColor=#000000;fillColor=none;" vertex="1" parent="twMHJTkQKGjOTuoVNY1T-611">
          <mxGeometry x="200" y="660" width="60" height="40" as="geometry" />
        </mxCell>
        <mxCell id="twMHJTkQKGjOTuoVNY1T-630" value="Surat Perjalanan&amp;nbsp;" style="whiteSpace=wrap;html=1;rounded=0;shadow=0;glass=0;sketch=1;jiggle=0;disableMultiStroke=0;disableMultiStrokeFill=0;fillStyle=auto;strokeColor=#000000;fillColor=none;" vertex="1" parent="twMHJTkQKGjOTuoVNY1T-611">
          <mxGeometry x="200.0000000000004" y="730" width="60" height="40" as="geometry" />
        </mxCell>
        <mxCell id="twMHJTkQKGjOTuoVNY1T-631" value="UTS &amp;amp; UAS" style="whiteSpace=wrap;html=1;rounded=0;shadow=0;glass=0;sketch=1;jiggle=0;disableMultiStroke=0;disableMultiStrokeFill=0;fillStyle=auto;strokeColor=#000000;fillColor=none;" vertex="1" parent="twMHJTkQKGjOTuoVNY1T-611">
          <mxGeometry x="200" y="800" width="60" height="40" as="geometry" />
        </mxCell>
      </root>
    </mxGraphModel>
  </diagram>
</mxfile>
